<?xml version="1.0" standalone="no"?>
<!DOCTYPE svg PUBLIC "-//W3C//DTD SVG 1.1//EN"
  "http://www.w3.org/Graphics/SVG/1.1/DTD/svg11.dtd">
<svg width="156.32200622558594mm" height="104.84999847412107mm" viewBox="-78.16100311279297 -52.42499923706053 156.32200622558594 104.84999847412107" xmlns="http://www.w3.org/2000/svg" version="1.1">
	<title>svgOutput</title>
	<desc>made with tinkercad</desc>
<path d="M 31.864999771118164 -45.08499908447265 L 32.768001556396484 -44.76362228393554 L 35.084999084472656 -43.93899917602538 L 38.138999938964844 -42.666999816894524 L 39.590999603271484 -41.98199844360351 L 40.9900016784668 -41.26300048828124 L 42.32899856567383 -40.509998321533196 L 43.608001708984375 -39.7229995727539 L 44.821998596191406 -38.9000015258789 L 45.96900177001953 -38.04299926757812 L 47.04899978637695 -37.15100097656249 L 48.058998107910156 -36.22499847412109 L 49.000999450683594 -35.26499938964843 L 49.87300109863281 -34.27199935913085 L 50.676998138427734 -33.24700164794921 L 51.0120735168457 -32.76800155639648 L 51.415000915527344 -32.19200134277343 L 52.0880012512207 -31.107999801635735 L 52.70000076293945 -29.99500083923339 L 53.25400161743164 -28.85700035095214 L 53.75199890136719 -27.69499969482421 L 54.60100173950195 -25.305999755859368 L 55.279998779296875 -22.843999862670895 L 55.83000183105469 -20.326999664306637 L 56.28799819946289 -17.773000717163082 L 56.506507873535156 -16.38400077819824 L 57.097999572753906 -12.623999595642086 L 57.52799987792969 -10.060000419616697 L 58.020999908447266 -7.524000167846678 L 58.606998443603516 -5.026000022888183 L 59.30799865722656 -2.5750000476837154 L 59.981998443603516 -0.5979999899864195 L 60.21738052368164 1.1102230246251565e-16 L 60.74599838256836 1.343000054359436 L 61.60100173950195 3.246999979019164 L 62.54100036621094 5.117000102996825 L 63.55799865722656 6.954999923706053 L 64.64399719238281 8.765000343322752 L 65.53600311279297 10.133605957031248 L 66.96099853515625 12.319999694824215 L 69.36399841308594 15.815999984741207 L 71.697998046875 19.29000091552734 L 72.78900146484375 21.02700042724609 L 73.8010025024414 22.767000198364254 L 74.71299743652344 24.510999679565423 L 75.50900268554688 26.25600051879882 L 76.16600036621094 27.999999999999993 L 76.66999816894531 29.736999511718743 L 77.00599670410156 31.462999343872063 L 77.1242904663086 32.76800155639648 L 77.16100311279297 33.17300033569335 L 77.1240005493164 34.86199951171874 L 76.88600158691406 36.52600097656249 L 76.44100189208984 38.16299819946288 L 75.78199768066406 39.77099990844726 L 74.90699768066406 41.347000122070305 L 73.81300354003906 42.88999938964843 L 72.49500274658203 44.4000015258789 L 70.9530029296875 45.87499999999999 L 69.18699645996094 47.31499862670898 L 67.19599914550781 48.72000122070311 L 65.53600311279297 49.74626541137694 L 64.9800033569336 50.090000152587876 L 62.540000915527344 51.42499923706053 L 55.540000915527344 51.42499923706053 L 55.540000915527344 48.42499923706053 L 59.36399841308594 48.42499923706053 L 59.36399841308594 45.42499923706054 L 52.540000915527344 45.42499923706054 L 52.540000915527344 32.76800155639648 L 52.540000915527344 18.424999237060543 L 52.42599868774414 14.73999977111816 L 52.08599853515625 11.069999694824217 L 51.520999908447266 7.427999973297117 L 50.731998443603516 3.826999902725219 L 49.7239990234375 0.2809999883174897 L 49.6248893737793 1.1102230246251565e-16 L 48.49800109863281 -3.194999933242797 L 47.0620002746582 -6.590000152587889 L 45.41899871826172 -9.890000343322752 L 43.57600021362305 -13.081999778747555 L 41.53900146484375 -16.155000686645504 L 41.36606216430664 -16.38400077819824 L 39.31800079345703 -19.096000671386715 L 36.91999816894531 -21.895999908447262 L 34.354000091552734 -24.541999816894524 L 32.768001556396484 -25.98768234252929 L 31.6299991607666 -27.024999618530266 L 28.757999420166016 -29.336000442504876 L 25.749000549316406 -31.465999603271477 L 23.645666122436523 -32.76800155639648 L 22.614999771118164 -33.40599822998046 L 19.367000579833984 -35.1500015258789 L 16.384000778198242 -36.522998809814446 L 16.018999099731445 -36.69100189208984 L 12.581000328063965 -38.022998809814446 L 9.069000244140625 -39.13999938964843 L 5.49399995803833 -40.03900146484374 L 1.8700000047683716 -40.71599960327148 L 6.578879151522554e-14 -40.947578430175774 L -1.7879999876022339 -41.16899871826171 L -5.4670000076293945 -41.39599990844726 L -9.154000282287598 -41.39599990844726 L -12.831999778747559 -41.16899871826171 L -16.384000778198242 -40.72924804687499 L -16.490999221801758 -40.71599960327148 L -20.114999771118164 -40.03900146484374 L -23.68899917602539 -39.13999938964843 L -27.20199966430664 -38.022998809814446 L -30.639999389648438 -36.69100189208984 L -32.768001556396484 -35.711536407470696 L -33.987998962402344 -35.1500015258789 L -37.236000061035156 -33.40599822998046 L -38.266666412353516 -32.76800155639648 L -40.369998931884766 -31.465999603271477 L -43.37900161743164 -29.336000442504876 L -46.250999450683594 -27.024999618530266 L -48.974998474121094 -24.541999816894524 L -51.54100036621094 -21.895999908447262 L -53.93899917602539 -19.096000671386715 L -55.987064361572266 -16.38400077819824 L -56.15999984741211 -16.155000686645504 L -58.19599914550781 -13.081999778747555 L -60.040000915527344 -9.890000343322752 L -61.68299865722656 -6.590000152587889 L -63.11899948120117 -3.194999933242797 L -64.2449722290039 1.1102230246251565e-16 L -64.34400177001953 0.2809999883174897 L -65.35299682617188 3.826999902725219 L -66.14199829101562 7.427999973297117 L -66.70700073242188 11.069999694824217 L -67.0469970703125 14.73999977111816 L -67.16100311279297 18.424999237060543 L -67.16100311279297 45.42499923706054 L -70.16100311279297 45.42499923706054 L -74.31099700927734 45.42499923706054 L -74.31099700927734 48.42499923706053 L -70.16100311279297 48.42499923706053 L -70.16100311279297 51.42499923706053 L -74.31099700927734 51.42499923706053 L -77.16100311279297 51.42499923706053 L -77.16100311279297 45.42499923706054 L -77.16100311279297 18.424999237060543 L -77.0510025024414 14.508000373840328 L -76.72200012207031 10.604000091552733 L -76.17400360107422 6.724999904632567 L -75.41000366210938 2.8819999694824214 L -74.66632843017578 1.1102230246251565e-16 L -74.43099975585938 -0.9120000004768368 L -73.24099731445312 -4.644999980926513 L -71.84400177001953 -8.30500030517578 L -70.24400329589844 -11.88199996948242 L -68.44499969482422 -15.362999916076657 L -66.45500183105469 -18.736999511718746 L -65.53600311279297 -20.111701965332028 L -64.2770004272461 -21.995000839233395 L -61.922000885009766 -25.125999450683587 L -59.39400100708008 -28.118999481201165 L -56.70199966430664 -30.965999603271477 L -54.79624557495117 -32.76800155639648 L -53.85499954223633 -33.658000946044915 L -50.86199951171875 -36.1860008239746 L -47.73099899291992 -38.541999816894524 L -44.472999572753906 -40.717998504638665 L -41.0989990234375 -42.708999633789055 L -37.61800003051758 -44.506999969482415 L -34.04100036621094 -46.10800170898437 L -32.768001556396484 -46.593765258789055 L -30.3799991607666 -47.50500106811523 L -26.648000717163086 -48.694999694824205 L -22.854000091552734 -49.673000335693345 L -19.01099967956543 -50.43799972534178 L -16.384000778198242 -50.80902862548827 L -15.130999565124512 -50.98600006103514 L -11.227999687194824 -51.31499862670897 L -7.309999942779541 -51.42499923706053 L -4.416999816894531 -51.368000030517564 L -1.475000023841858 -51.20999908447264 L 0 -51.08948135375975 L 1.5479999780654907 -50.96300125122069 L 4.671000003814697 -50.63600158691405 L 7.89900016784668 -50.23300170898436 L 11.225000381469727 -49.75500106811522 L 14.633999824523926 -49.20100021362303 L 16.384000778198242 -48.88047790527342 L 18.10099983215332 -48.56600189208983 L 21.5939998626709 -47.84500122070312 L 25.07900047302246 -47.028999328613274 L 28.516000747680664 -46.11199951171874 L 31.864999771118164 -45.08499908447265 z" fill="none" stroke="rgb(255,0,0)" stroke-width="0.001mm" />
</svg>