<?xml version="1.0" encoding="UTF-8" standalone="no"?>
<svg
   xmlns:dc="http://purl.org/dc/elements/1.1/"
   xmlns:cc="http://creativecommons.org/ns#"
   xmlns:rdf="http://www.w3.org/1999/02/22-rdf-syntax-ns#"
   xmlns:svg="http://www.w3.org/2000/svg"
   xmlns="http://www.w3.org/2000/svg"
   xmlns:sodipodi="http://sodipodi.sourceforge.net/DTD/sodipodi-0.dtd"
   xmlns:inkscape="http://www.inkscape.org/namespaces/inkscape"
   width="76mm"
   height="74mm"
   viewBox="-70.785004 -70.849998 76.000001 74.000002"
   version="1.1"
   id="svg9601"
   sodipodi:docname="Head_plate_extra_reinforce.svg"
   inkscape:version="0.92.4 (5da689c313, 2019-01-14)">
  <metadata
     id="metadata9607">
    <rdf:RDF>
      <cc:Work
         rdf:about="">
        <dc:format>image/svg+xml</dc:format>
        <dc:type
           rdf:resource="http://purl.org/dc/dcmitype/StillImage" />
        <dc:title>svgOutput</dc:title>
      </cc:Work>
    </rdf:RDF>
  </metadata>
  <defs
     id="defs9605" />
  <sodipodi:namedview
     pagecolor="#ffffff"
     bordercolor="#666666"
     borderopacity="1"
     objecttolerance="10"
     gridtolerance="10"
     guidetolerance="10"
     inkscape:pageopacity="0"
     inkscape:pageshadow="2"
     inkscape:window-width="2560"
     inkscape:window-height="1299"
     id="namedview9603"
     showgrid="false"
     inkscape:zoom="1.7626441"
     inkscape:cx="-8.6645856"
     inkscape:cy="51.164127"
     inkscape:window-x="-13"
     inkscape:window-y="-13"
     inkscape:window-maximized="1"
     inkscape:current-layer="svg9601" />
  <title
     id="title9595">svgOutput</title>
  <desc
     id="desc9597">made with tinkercad</desc>
  <path
     d="m 2.0745726,-39.998059 0.168473,0.18729 0.285507,0.317399 0.486023,0.540311 0.758999,1.184 0.556,1.291 0.34,1.365 0.109745,1.337 0.0053,0.064 -0.115001,1.402 -0.34,1.364 -0.556,1.290999 -0.758999,1.184 -0.940003,1.045001 -0.082,-0.925 -0.311001,-0.875 -0.521,-0.769 -0.69704298,-0.614 -0.828998,-0.419 -0.90800102,-0.197 -0.927998,0.037 -0.889,0.269 -0.166999,0.101927 -0.249249,0.152124 -0.376755,0.229949 -0.330831,0.341588 -0.315167,0.325412 -0.448,2.63 -0.666999,2.582999 -0.881001,2.518001 -1.09,2.436 -1.22039,2.209001 -0.06961,0.125999 m -27.8139996,-48.252001 0.694,0.01079 1.473685,0.0229 0.213315,0.0033 m -2.381,-0.037 -2.378,0.141 -2.360001,0.319 -2.329999,0.494999 -0.430001,0.125897 -1.854999,0.543104 -2.23,0.837999 -0.340506,-0.08541 -0.560494,-0.140591 -0.815,-0.444999 -0.678,-0.636 -0.496,-0.785 -0.283,-0.885 -0.02866,-0.510998 -0.02334,-0.416 0.183,-0.911 0.405,-0.835 0.603,-0.707 0.76,-0.534 -1.375,-0.291 -1.404999,-0.066 -0.053,0.006 -1.342998,0.15777 -1.352001,0.388 -1.270001,0.601 -1.157,0.8 -1.010999,0.977 -0.618633,0.83 -0.221367,0.297 -0.32131,0.621232 -0.32469,0.627768 -0.03755,0.115402 -0.187136,0.575171 -0.132208,0.406349 -0.07811,0.240078 0.841999,-0.355 0.904002,-0.135999 0.908998,0.092 0.859001,0.312999 0.754999,0.515002 0.604,0.685999 0.416001,0.812999 0.203001,0.892 -0.024,0.913001 -0.249001,0.880001 -0.843206,0.695999 -1.115793,0.920999 -1.824002,1.769001 -3.506929,1.087408 -1.518,2.037001 -0.975489,1.554998 -0.374511,0.597001 -1.355188,2.493827 -3.25098,3.028744 -0.117128,4.737507 -0.339473,12.766483 0.164228,3.850967 5.841693,3.404897 0.866779,2.074167 m 17.492001,14.3620272 1.882999,0.553137 0.374001,0.109863 2.299,0.495001 2.33,0.322001 2.348,0.149999 0.841,-0.00872 c 1.207588,0.04797 2.400428,-0.108464 3.598395,-0.232922 l 3.878297,1.70666003 18.221267,-10.36435823 -0.01338,-4.143873 1.4354216,-2.185568 m 10.979997,-22.732 -0.113998,0.907 -0.334,0.850999 -0.534,0.742001 -0.70000098,0.587 -0.823997,0.395999 -0.89600002,0.18 -0.913002,-0.046 -0.873001,-0.27 -0.143997,-0.08836 -0.635003,-0.38964 -0.636999,-0.655 -0.448,-2.63 -0.666998,-2.583 -0.881001,-2.518 c -0.631819,-1.620019 -1.472102,-3.127634 -2.31039,-4.645001 -0.296612,-0.559624 -0.573181,-1.130147 -0.857137,-1.696369 l 0.903827,-3.99628 -20.4815856,-11.433158 -3.113286,1.898317 -1.954429,-0.09351 m -11.762,61.8139992 -2.202,-0.828998 -0.886,0.224998 -0.803,0.436001 -0.671,0.621 -0.496,0.767 -0.292,0.866 -0.04335,0.573002 -0.02565,0.33899603 0.158,0.900002 0.376,0.83299997 0.57,0.715 0.728,0.550999 -0.246936,0.05244 -0.416063,0.08836 -0.595588,0.126484 -0.116413,0.02472 -0.70847,0.03278 -0.638531,0.02954 -0.058,0.0027 -1.396,-0.163002 -1.352002,-0.388 -1.269998,-0.600998 -1.157002,-0.79999897 -1.010997,-0.977024 -0.570931,-0.76599803 -0.269069,-0.361001 -0.646,-1.249 -0.352959,-1.084841 -0.08204,-0.252161 0.841999,0.392 0.913,0.168002 0.927,-0.067 0.880001,-0.296999 0.777001,-0.509001 0.625,-0.687 0.431999,-0.821998 0.211001,-0.905001 -0.022,-0.928 -0.255002,-0.893001 -0.843353,-0.697001 -1.121647,-0.9270002 -1.829,-1.777 -1.681,-1.917 -1.521,-2.046 -0.953653,-1.524999 -0.398346,-0.637001 m 45.576,-36.530001 -1.625,-1.277574 -0.433001,-0.340424 -2.201,-1.415001 -2.326,-1.198999 -2.43,-0.973002 -2.511001,-0.736999 -2.568999,-0.494999 -2.606,-0.249001 h -1.308 -1.308 l -2.606,0.249001 -2.569,0.494999 -1.709001,0.501606 -0.802,0.235393 -2.429999,0.973002 -0.851638,0.438999 -1.474362,0.76 -2.201,1.415001 -0.433001,0.340424 -1.625,1.277574 -1.893999,1.806002 -3.54393,1.155406 -0.438091,0.615 -1.079911,1.516001 -1.309,2.267 -1.087,2.38 -0.855999,2.472999 -0.617,2.544001 -0.372,2.589999 -0.125,2.614001 0.125,2.614 0.372,2.589999 0.617,2.544001 2.68693,3.295592 0.84104,1.841465 0.24596,0.538535 1.309,2.267 1.079911,1.516001 0.438091,0.615 1.712999,1.977998 1.893999,1.806002 1.625,1.277574 0.433001,0.340424 2.201,1.4150012 1.474362,0.76 0.851638,0.438999 2.429999,0.973002 0.802,0.235393 1.709001,0.501606 2.569,0.494999 2.606,0.249001 h 1.308 1.308 l 2.606,-0.249001 2.568999,-0.494999 2.511001,-0.736999 2.43,-0.973002 2.326,-1.198999 2.201,-1.4150012 0.433001,-0.340424 1.625,-1.277574 1.893999,-1.806002 1.178003,-1.360239 0.534996,-0.617759 0.438091,-0.615 1.079911,-1.516001 1.309,-2.267 1.087,-2.38 0.8559986,-2.473 0.617,-2.544 0.372,-2.59 0.125,-2.614 -0.125,-2.614 -0.372,-2.59 -0.617,-2.544 -0.8559986,-2.473 -1.087,-2.38 -1.309,-2.267 -1.079911,-1.516001 -0.438091,-0.615 -1.712999,-1.977998 -1.893999,-1.806002"
     id="path9599"
     style="fill:none;stroke:#ff0000;stroke-width:0.08307917;stroke-miterlimit:4;stroke-dasharray:none"
     inkscape:connector-curvature="0"
     sodipodi:nodetypes="ccccccccccccccccccccccccccccccccccccccccccccccccccccccccccccccccccccccccccccccccccccccccccccccccccccccccccccccccccccccccccccccccccccccccccccccccccccccccccccccccccccccccccccccccccccccccccccccccccccccccccccccccccccccccccccccccccccccccccccccccccccccccccccccccccc" />
</svg>
