<?xml version="1.0" standalone="no"?>
<!DOCTYPE svg PUBLIC "-//W3C//DTD SVG 1.1//EN"
  "http://www.w3.org/Graphics/SVG/1.1/DTD/svg11.dtd">
<svg width="141.57000732421875mm" height="141.69999694824216mm" viewBox="-70.78500366210938 -70.84999847412108 141.57000732421875 141.69999694824216" xmlns="http://www.w3.org/2000/svg" version="1.1">
	<title>svgOutput</title>
	<desc>made with tinkercad</desc>
<path d="M 24.1200008392334 -65.55300140380858 L 24.162338256835938 -65.53600311279295 L 27.92799949645996 -64.0240020751953 L 31.639999389648438 -62.27299880981444 L 35.24300003051758 -60.306999206542955 L 38.7239990234375 -58.132999420166 L 42.07099914550781 -55.758998870849595 L 45.27299880981445 -53.19200134277342 L 48.319000244140625 -50.44100189208983 L 51.198001861572266 -47.515998840332024 L 53.900001525878906 -44.42699813842773 L 56.41600036621094 -41.18500137329101 L 58.73699951171875 -37.80099868774413 L 60.85599899291992 -34.285999298095696 L 61.65323257446289 -32.76800155639648 L 62.763999938964844 -30.65299987792968 L 64.45600128173828 -26.91399955749511 L 65.53600311279297 -24.098653793334954 L 65.9260025024414 -23.08200073242187 L 66.67400360107422 -20.72408294677734 L 67.16699981689453 -19.17000007629394 L 68.177001953125 -15.192000389099118 L 68.9520034790039 -11.161999702453612 L 69.48799896240234 -7.092999935150145 L 69.78500366210938 -2.999999999999999 L 66.67400360107422 -2.999999999999999 L 66.67400360107422 1.1102230246251565e-16 L 66.67400360107422 2.999999999999999 L 69.78500366210938 2.999999999999999 L 69.48799896240234 7.092999935150145 L 68.9520034790039 11.161999702453612 L 68.177001953125 15.192000389099118 L 67.16699981689453 19.17000007629394 L 66.67400360107422 20.72408294677734 L 65.9260025024414 23.08200073242187 L 65.53600311279297 24.098653793334954 L 64.45600128173828 26.91399955749511 L 62.763999938964844 30.65299987792968 L 61.65323257446289 32.76800155639648 L 60.85599899291992 34.285999298095696 L 58.73699951171875 37.80099868774413 L 56.41600036621094 41.18500137329101 L 53.900001525878906 44.42699813842773 L 51.198001861572266 47.515998840332024 L 48.319000244140625 50.44100189208983 L 45.27299880981445 53.19200134277342 L 42.07099914550781 55.758998870849595 L 38.7239990234375 58.132999420166 L 35.24300003051758 60.306999206542955 L 31.639999389648438 62.27299880981444 L 27.92799949645996 64.0240020751953 L 24.162338256835938 65.53600311279295 L 24.1200008392334 65.55300140380858 L 20.229000091552734 66.85700225830077 L 16.267000198364258 67.92900085449217 L 12.25 68.76699829101561 L 8.1899995803833 69.3679962158203 L 4.1020002365112305 69.72899627685545 L 0 69.84999847412108 L 0 66.6750030517578 L -6 66.6750030517578 L -6 69.59200286865233 L -10.00100040435791 69.12999725341795 L -13.968999862670898 68.43900299072264 L -17.891000747680664 67.51999664306639 L -20.743614196777344 66.6750030517578 L -21.753000259399414 66.37599945068358 L -24.087017059326172 65.53600311279295 L -25.542999267578125 65.01200103759764 L -29.24799919128418 63.431999206542955 L -32.768001556396484 61.68322372436522 L -32.85499954223633 61.63999938964842 L -36.354000091552734 59.644001007080064 L -39.73099899291992 57.449001312255845 L -42.97700119018555 55.063999176025376 L -46.07899856567383 52.49499893188475 L -49.02799987792969 49.75099945068358 L -49.60207748413086 49.15200042724608 L -51.814998626708984 46.842998504638665 L -54.428001403808594 43.77799987792968 L -56.861000061035156 40.568000793457024 L -59.10499954223633 37.2229995727539 L -61.152000427246094 33.75400161743163 L -61.65972900390625 32.76800155639648 L -62.99599838256836 30.173000335693352 L -64.63099670410156 26.492000579833977 L -65.53600311279297 24.087594985961907 L -66.05000305175781 22.72200012207031 L -66.9990005493164 19.681245803833004 L -67.25 18.877000808715817 L -68.22699737548828 14.968999862670895 L -68.97599792480469 11.012000083923338 L -69.49600219726562 7.018000125885008 L -69.78500366210938 2.999999999999999 L -66.9990005493164 2.999999999999999 L -66.9990005493164 1.1102230246251565e-16 L -66.9990005493164 -2.999999999999999 L -69.78500366210938 -2.999999999999999 L -69.49600219726562 -7.018000125885008 L -68.97599792480469 -11.012000083923338 L -68.22699737548828 -14.968999862670895 L -67.25 -18.877000808715817 L -66.05000305175781 -22.72200012207031 L -65.53600311279297 -24.087594985961907 L -64.63099670410156 -26.492000579833977 L -62.99599838256836 -30.173000335693352 L -61.65972900390625 -32.76800155639648 L -61.152000427246094 -33.75400161743163 L -59.10499954223633 -37.2229995727539 L -56.861000061035156 -40.568000793457024 L -54.428001403808594 -43.77799987792968 L -51.814998626708984 -46.842998504638665 L -49.60207748413086 -49.15200042724608 L -49.02799987792969 -49.75099945068358 L -46.07899856567383 -52.49499893188475 L -42.97700119018555 -55.063999176025376 L -39.73099899291992 -57.449001312255845 L -36.354000091552734 -59.644001007080064 L -32.85499954223633 -61.63999938964842 L -32.768001556396484 -61.68322372436522 L -29.24799919128418 -63.431999206542955 L -25.542999267578125 -65.01200103759764 L -24.087017059326172 -65.53600311279295 L -21.753000259399414 -66.37599945068358 L -19.646453857421875 -66.99999999999999 L -17.891000747680664 -67.51999664306639 L -13.968999862670898 -68.43900299072264 L -10.00100040435791 -69.12999725341795 L -6 -69.59200286865233 L -6 -66.99999999999999 L 0 -66.99999999999999 L 0 -69.84999847412108 L 4.1020002365112305 -69.72899627685545 L 8.1899995803833 -69.3679962158203 L 12.25 -68.76699829101561 L 16.267000198364258 -67.92900085449217 L 20.229000091552734 -66.85700225830077 L 24.1200008392334 -65.55300140380858 M 38.099998474121094 -6.222000122070311 L 38.268470764160156 -6.03470993041992 L 38.553977966308594 -5.717310905456542 L 39.040000915527344 -5.177000045776366 L 39.79899978637695 -3.9930000305175772 L 40.35499954223633 -2.7019999027252193 L 40.69499969482422 -1.3370000123977657 L 40.804744720458984 1.1102230246251565e-16 L 40.810001373291016 0.06400000303983698 L 40.69499969482422 1.465999960899353 L 40.35499954223633 2.8299999237060542 L 39.79899978637695 4.120999813079833 L 39.040000915527344 5.304999828338622 L 38.099998474121094 6.349999904632567 L 38.018001556396484 5.425000190734862 L 37.707000732421875 4.550000190734862 L 37.18600082397461 3.7809998989105216 L 36.48899841308594 3.1670000553131095 L 35.65999984741211 2.7479999065399165 L 34.75199890136719 2.551000118255615 L 33.82400131225586 2.588000059127807 L 32.935001373291016 2.857000112533569 L 32.768001556396484 2.958926916122436 L 32.51875305175781 3.1110517978668204 L 32.141998291015625 3.3410000801086417 L 31.811166763305664 3.6825878620147696 L 31.496000289916992 4.007999897003173 L 31.04800033569336 6.63800001144409 L 30.381000518798828 9.2209997177124 L 29.5 11.739000320434569 L 28.40999984741211 14.17500019073486 L 27.18960952758789 16.38400077819824 L 27.1200008392334 16.510000228881832 L 29.13800048828125 16.87800025939941 L 31.18600082397461 16.999999999999996 L 32.768001556396484 16.903442382812496 L 33.23400115966797 16.874999999999996 L 35.25199890136719 16.50300025939941 L 35.63291549682617 16.38400077819824 L 37.21099853515625 15.890999794006344 L 39.08100128173828 15.048000335693356 L 40.83700180053711 13.986000061035153 L 42.45100021362305 12.720000267028805 L 43.9010009765625 11.26799964904785 L 45.16600036621094 9.652999877929686 L 46.04875564575195 8.19200038909912 L 46.22700119018555 7.896999835968016 L 47.069000244140625 6.02500009536743 L 47.67900085449219 4.06599998474121 L 48.04899978637695 2.04800009727478 L 48.172000885009766 1.1102230246251565e-16 L 48.04899978637695 -2.04800009727478 L 47.67900085449219 -4.06599998474121 L 47.069000244140625 -6.02500009536743 L 46.22700119018555 -7.896999835968016 L 46.04875564575195 -8.19200038909912 L 45.16600036621094 -9.652999877929686 L 43.9010009765625 -11.26799964904785 L 42.45100021362305 -12.720000267028805 L 40.83700180053711 -13.986000061035153 L 39.08100128173828 -15.048000335693356 L 37.21099853515625 -15.890999794006344 L 35.63291549682617 -16.38400077819824 L 35.25199890136719 -16.50300025939941 L 33.23400115966797 -16.874999999999996 L 32.768001556396484 -16.903442382812496 L 31.18600082397461 -16.999999999999996 L 29.13800048828125 -16.87800025939941 L 27.1200008392334 -16.510000228881832 L 27.18960952758789 -16.38400077819824 L 28.40999984741211 -14.17500019073486 L 29.5 -11.739000320434569 L 30.381000518798828 -9.2209997177124 L 31.04800033569336 -6.63800001144409 L 31.496000289916992 -4.007999897003173 L 32.132999420166016 -3.3529999256134024 L 32.768001556396484 -2.9633593559265132 L 32.9119987487793 -2.8749999999999996 L 33.78499984741211 -2.605000019073486 L 34.698001861572266 -2.5590000152587886 L 35.59400177001953 -2.7390000820159908 L 36.417999267578125 -3.134999990463256 L 37.11800003051758 -3.7219998836517325 L 37.652000427246094 -4.464000225067138 L 37.986000061035156 -5.315000057220458 L 38.099998474121094 -6.222000122070311 M -37.28200149536133 -40.18500137329101 L -37.28200149536133 -36.86399841308593 L -37.28200149536133 -36.68500137329101 L -34.082000732421875 -36.68500137329101 L -33.88199996948242 -36.68500137329101 L -33.88199996948242 -36.86399841308593 L -33.88199996948242 -40.18500137329101 L -32.768001556396484 -40.18500137329101 L -30.381999969482422 -40.18500137329101 L -30.381999969482422 -40.95999908447265 L -30.381999969482422 -42.48782730102538 L -30.381999969482422 -43.384998321533196 L -30.381999969482422 -43.58499908447265 L -32.768001556396484 -43.58499908447265 L -33.88199996948242 -43.58499908447265 L -33.88199996948242 -45.05599975585937 L -33.88199996948242 -47.08499908447265 L -37.082000732421875 -47.08499908447265 L -37.28200149536133 -47.08499908447265 L -37.28200149536133 -45.05599975585937 L -37.28200149536133 -43.58499908447265 L -40.78200149536133 -43.58499908447265 L -40.78200149536133 -43.384998321533196 L -40.78200149536133 -40.95999908447265 L -40.78200149536133 -40.384998321533196 L -40.78200149536133 -40.18500137329101 L -37.28200149536133 -40.18500137329101 M -0.6940000057220459 -31.742000579833977 L 0 -31.731214523315423 L 1.4736855030059814 -31.708314895629876 L 1.687000036239624 -31.704999923706048 L 1.295694351196289 -32.76800155639648 L 0.9919999837875366 -33.592998504638665 L 0.07900000363588333 -35.386001586914055 L 0 -35.50414657592773 L -1.0390000343322754 -37.057998657226555 L -2.3469998836517334 -38.5870018005371 L -3.8259999752044678 -39.950000762939446 L -5.222352981567383 -40.95999908447265 L -5.455999851226807 -41.12900161743163 L -7.214000225067139 -42.10699844360351 L -9.074999809265137 -42.87099838256835 L -11.012999534606934 -43.40900039672851 L -13.00100040435791 -43.71500015258788 L -15.01200008392334 -43.78400039672851 L -16.384000778198242 -43.66829681396484 L -17.016000747680664 -43.61500167846679 L -18.98699951171875 -43.20999908447265 L -20.895999908447266 -42.575000762939446 L -22.715999603271484 -41.719001770019524 L -23.93368148803711 -40.95999908447265 L -24.42300033569336 -40.65499877929687 L -24.576000213623047 -40.53223037719726 L -25.992000579833984 -39.39599990844726 L -27.400999069213867 -37.95999908447265 L -28.631000518798828 -36.36800003051757 L -29.663999557495117 -34.64199829101562 L -30.486000061035156 -32.80599975585937 L -30.497875213623047 -32.76800155639648 L -31.086000442504883 -30.885999679565423 L -31.45400047302246 -28.908000946044915 L -31.586000442504883 -26.90099906921386 L -31.479999542236328 -24.89200019836425 L -31.425500869750977 -24.57600021362304 L -31.13800048828125 -22.909000396728512 L -30.56399917602539 -20.98100090026855 L -29.766000747680664 -19.135000228881832 L -28.75727081298828 -17.3989086151123 L -28.7549991607666 -17.39500045776367 L -28.281700134277344 -16.765501022338864 L -27.994863510131836 -16.38400077819824 L -27.54599952697754 -15.78699970245361 L -27.17148780822754 -16.38400077819824 L -26.195999145507812 -17.938999176025387 L -24.67799949645996 -19.975999832153317 L -23.00200080871582 -21.885999679565426 L -21.17799949645996 -23.655000686645504 L -20.062206268310547 -24.57600021362304 L -19.2189998626709 -25.271999359130852 L -18.969999313354492 -26.152000427246087 L -18.945999145507812 -27.06500053405761 L -19.14900016784668 -27.957000732421868 L -19.565000534057617 -28.770000457763665 L -20.16900062561035 -29.45599937438964 L -20.923999786376953 -29.97100067138671 L -21.783000946044922 -30.28400039672851 L -22.691999435424805 -30.375999450683587 L -23.59600067138672 -30.239999771118157 L -24.437999725341797 -29.88500022888183 L -24.35988998413086 -30.125078201293938 L -24.22768211364746 -30.531427383422844 L -24.040546417236328 -31.106597900390618 L -24.003000259399414 -31.222000122070305 L -23.67831039428711 -31.849767684936516 L -23.35700035095215 -32.47100067138671 L -23.13563346862793 -32.76800155639648 L -22.517000198364258 -33.5979995727539 L -21.506000518798828 -34.575000762939446 L -20.349000930786133 -35.37499999999999 L -19.07900047302246 -35.976001739501946 L -17.726999282836914 -36.36399841308593 L -16.384000778198242 -36.52177429199218 L -16.33099937438965 -36.52799987792968 L -14.925999641418457 -36.4620018005371 L -13.550999641418457 -36.171001434326165 L -14.310999870300293 -35.63700103759765 L -14.913999557495117 -34.930000305175774 L -15.319000244140625 -34.09500122070312 L -15.501999855041504 -33.18399810791015 L -15.47866439819336 -32.76800155639648 L -15.449999809265137 -32.256999969482415 L -15.166999816894531 -31.37199974060058 L -14.670999526977539 -30.58699989318847 L -13.993000030517578 -29.95100021362304 L -13.178000450134277 -29.50600051879882 L -12.61750602722168 -29.36540985107421 L -12.277000427246094 -29.2800006866455 L -10.04699993133545 -30.11800003051757 L -8.192000389099121 -30.6611042022705 L -7.76200008392334 -30.787000656127923 L -5.432000160217285 -31.281999588012688 L -3.072000026702881 -31.600999832153313 L -0.6940000057220459 -31.742000579833977 M -10.074999809265137 30.10899925231933 L -12.277000427246094 29.2800006866455 L -13.163000106811523 29.504999160766594 L -13.965999603271484 29.940999984741204 L -14.63700008392334 30.562000274658196 L -15.133000373840332 31.329000473022454 L -15.425000190734863 32.19499969482421 L -15.468352317810059 32.76800155639648 L -15.494000434875488 33.10699844360351 L -15.336000442504883 34.006999969482415 L -14.960000038146973 34.84000015258788 L -14.390000343322754 35.555000305175774 L -13.661999702453613 36.105998992919915 L -13.908935546875 36.15843963623046 L -14.32499885559082 36.24679565429687 L -14.920586585998535 36.373279571533196 L -15.036999702453613 36.397998809814446 L -15.74547004699707 36.430774688720696 L -16.384000778198242 36.460315704345696 L -16.441999435424805 36.463001251220696 L -17.83799934387207 36.29999923706054 L -19.190000534057617 35.91199874877929 L -20.459999084472656 35.3110008239746 L -21.617000579833984 34.511001586914055 L -22.628000259399414 33.53400039672851 L -23.198930740356445 32.76800155639648 L -23.468000411987305 32.40700149536132 L -24.11400032043457 31.158000946044915 L -24.46695899963379 30.073160171508782 L -24.548999786376953 29.820999145507805 L -23.707000732421875 30.212999343872063 L -22.79400062561035 30.38100051879882 L -21.867000579833984 30.313999176025384 L -20.98699951171875 30.01700019836425 L -20.209999084472656 29.50799942016601 L -19.584999084472656 28.820999145507805 L -19.152999877929688 27.9990005493164 L -18.941999435424805 27.09399986267089 L -18.964000701904297 26.16600036621093 L -19.2189998626709 25.27300071716308 L -20.062353134155273 24.57600021362304 L -21.18400001525879 23.649000167846676 L -23.01300048828125 21.871999740600582 L -24.694000244140625 19.95499992370605 L -26.21500015258789 17.909000396728512 L -27.16865348815918 16.38400077819824 L -27.566999435424805 15.746999740600582 L -28.0645694732666 16.38400077819824 L -28.32216453552246 16.713779449462887 L -28.81599998474121 17.346000671386715 L -29.867000579833984 19.083000183105465 L -30.70199966430664 20.931999206542965 L -31.312000274658203 22.868000030517575 L -31.632356643676758 24.57600021362304 L -31.68600082397461 24.861999511718743 L -31.81999969482422 26.886999130249016 L -31.711999893188477 28.91399955749511 L -31.363000869750977 30.913000106811516 L -30.805736541748047 32.76800155639648 L -30.77899932861328 32.85699844360351 L -29.966999053955078 34.71699905395507 L -28.93899917602539 36.46599960327148 L -28.516199111938477 37.02159118652343 L -27.709999084472656 38.081001281738274 L -26.297000885009766 39.53799819946288 L -24.72100067138672 40.81600189208984 L -24.49235725402832 40.95999908447265 L -23.003000259399414 41.897998809814446 L -21.16900062561035 42.76699829101562 L -19.2450008392334 43.410999298095696 L -17.256999969482422 43.820999145507805 L -16.384000778198242 43.894397735595696 L -15.234999656677246 43.99100112915038 L -13.206999778747559 43.919998168945305 L -11.20199966430664 43.60699844360351 L -9.248000144958496 43.05699920654296 L -7.374000072479248 42.27799987792968 L -5.605999946594238 41.28200149536132 L -5.166738510131836 40.95999908447265 L -3.9690001010894775 40.08200073242187 L -2.486999988555908 38.695999145507805 L -1.180999994277954 37.14300155639648 L -0.24494893848896027 35.71366882324218 L -0.0689999982714653 35.44499969482421 L 0 35.30592727661132 L 0.8330000042915344 33.62699890136718 L 1.1374443769454956 32.76800155639648 L 1.5110000371932983 31.71400070190429 L 0 31.73006057739257 L -0.8410000205039978 31.739000320434563 L -3.188999891281128 31.58900070190429 L -5.519000053405762 31.26700019836425 L -7.817999839782715 30.771999359130852 L -8.192000389099121 30.662136077880852 L -10.074999809265137 30.10899925231933 M -33.88199996948242 43.58499908447265 L -32.768001556396484 43.58499908447265 L -30.381999969482422 43.58499908447265 L -30.381999969482422 42.71751403808593 L -30.381999969482422 40.95999908447265 L -30.381999969482422 40.18500137329101 L -32.768001556396484 40.18500137329101 L -33.88199996948242 40.18500137329101 L -33.88199996948242 36.68500137329101 L -37.28200149536133 36.68500137329101 L -37.28200149536133 40.18500137329101 L -40.78200149536133 40.18500137329101 L -40.78200149536133 43.58499908447265 L -37.28200149536133 43.58499908447265 L -37.28200149536133 47.08499908447265 L -33.88199996948242 47.08499908447265 L -33.88199996948242 43.58499908447265 M 18.009000778198242 -20.78300094604492 L 16.384000778198242 -22.06057548522949 L 15.951000213623047 -22.400999069213864 L 13.75 -23.815999984741207 L 11.423999786376953 -25.01499938964843 L 8.994000434875488 -25.98800086975097 L 6.482999801635742 -26.72500038146972 L 3.9140000343322754 -27.219999313354485 L 1.3079999685287476 -27.46899986267089 L 0 -27.46899986267089 L -1.3079999685287476 -27.46899986267089 L -3.9140000343322754 -27.219999313354485 L -6.482999801635742 -26.72500038146972 L -8.192000389099121 -26.22339439392089 L -8.994000434875488 -25.98800086975097 L -11.423999786376953 -25.01499938964843 L -12.27563762664795 -24.57600021362304 L -13.75 -23.815999984741207 L -15.951000213623047 -22.400999069213864 L -16.384000778198242 -22.06057548522949 L -18.009000778198242 -20.78300094604492 L -19.902999877929688 -18.97699928283691 L -21.615999221801758 -16.999000549316403 L -22.05409049987793 -16.38400077819824 L -23.134000778198242 -14.868000030517575 L -24.44300079345703 -12.600999832153317 L -25.530000686645508 -10.2209997177124 L -26.38599967956543 -7.748000144958494 L -27.003000259399414 -5.203999996185302 L -27.375 -2.6140000820159908 L -27.5 1.1102230246251565e-16 L -27.375 2.6140000820159908 L -27.003000259399414 5.203999996185302 L -26.38599967956543 7.748000144958494 L -25.530000686645508 10.2209997177124 L -24.688961029052734 12.06246471405029 L -24.44300079345703 12.600999832153317 L -23.134000778198242 14.868000030517575 L -22.05409049987793 16.38400077819824 L -21.615999221801758 16.999000549316403 L -19.902999877929688 18.97699928283691 L -18.009000778198242 20.78300094604492 L -16.384000778198242 22.06057548522949 L -15.951000213623047 22.400999069213864 L -13.75 23.815999984741207 L -12.27563762664795 24.57600021362304 L -11.423999786376953 25.01499938964843 L -8.994000434875488 25.98800086975097 L -8.192000389099121 26.22339439392089 L -6.482999801635742 26.72500038146972 L -3.9140000343322754 27.219999313354485 L -1.3079999685287476 27.46899986267089 L 0 27.46899986267089 L 1.3079999685287476 27.46899986267089 L 3.9140000343322754 27.219999313354485 L 6.482999801635742 26.72500038146972 L 8.994000434875488 25.98800086975097 L 11.423999786376953 25.01499938964843 L 13.75 23.815999984741207 L 15.951000213623047 22.400999069213864 L 16.384000778198242 22.06057548522949 L 18.009000778198242 20.78300094604492 L 19.902999877929688 18.97699928283691 L 21.081003189086914 17.616760253906246 L 21.615999221801758 16.999000549316403 L 22.05409049987793 16.38400077819824 L 23.134000778198242 14.868000030517575 L 24.44300079345703 12.600999832153317 L 25.530000686645508 10.2209997177124 L 26.38599967956543 7.748000144958494 L 27.003000259399414 5.203999996185302 L 27.375 2.6140000820159908 L 27.5 1.1102230246251565e-16 L 27.375 -2.6140000820159908 L 27.003000259399414 -5.203999996185302 L 26.38599967956543 -7.748000144958494 L 25.530000686645508 -10.2209997177124 L 24.44300079345703 -12.600999832153317 L 23.134000778198242 -14.868000030517575 L 22.05409049987793 -16.38400077819824 L 21.615999221801758 -16.999000549316403 L 19.902999877929688 -18.97699928283691 L 18.009000778198242 -20.78300094604492 M -54.720001220703125 -4.999999999999999 L -54.720001220703125 1.1102230246251565e-16 L -54.720001220703125 4.999999999999999 L -51.720001220703125 4.999999999999999 L -51.720001220703125 1.1102230246251565e-16 L -51.720001220703125 -4.999999999999999 L -54.720001220703125 -4.999999999999999 M -36.720001220703125 -4.999999999999999 L -39.720001220703125 -4.999999999999999 L -39.720001220703125 1.1102230246251565e-16 L -39.720001220703125 4.999999999999999 L -36.720001220703125 4.999999999999999 L -36.720001220703125 1.1102230246251565e-16 L -36.720001220703125 -4.999999999999999 M -50.720001220703125 -8.999999999999998 L -50.720001220703125 -5.999999999999998 L -40.720001220703125 -5.999999999999998 L -40.720001220703125 -8.999999999999998 L -50.720001220703125 -8.999999999999998 M -40.720001220703125 8.999999999999998 L -40.720001220703125 5.999999999999998 L -50.720001220703125 5.999999999999998 L -50.720001220703125 8.999999999999998 L -40.720001220703125 8.999999999999998 z" fill="none" stroke="rgb(255,0,0)" stroke-width="0.001mm" />
</svg>