<?xml version="1.0" standalone="no"?>
<!DOCTYPE svg PUBLIC "-//W3C//DTD SVG 1.1//EN"
  "http://www.w3.org/Graphics/SVG/1.1/DTD/svg11.dtd">
<svg width="154.72083282470703mm" height="94.84533309936522mm" viewBox="-77.36000061035156 -47.42033386230468 154.72083282470703 94.84533309936522" xmlns="http://www.w3.org/2000/svg" version="1.1">
	<title>svgOutput</title>
	<desc>made with tinkercad</desc>
<path d="M 74.54374694824219 -0.10458333045244203 L 74.5798568725586 1.1102230246251565e-16 L 74.88849639892578 0.8940833210945128 L 75.10891723632812 1.623666644096374 L 75.40058135986328 2.7209167480468746 L 75.58016967773438 3.506333351135253 L 75.81175231933594 4.711500167846679 L 75.947998046875 5.555250167846679 L 76.03958129882812 6.201000213623045 L 76.1136703491211 6.877083301544188 L 76.20574951171875 7.781249999999998 L 76.26116943359375 8.487083435058592 L 76.29792022705078 9.219750404357908 L 76.34333038330078 10.185999870300291 L 76.36083221435547 10.947250366210936 L 76.35958099365234 11.976833343505858 L 76.35724639892578 12.766666412353512 L 76.33450317382812 13.585083007812496 L 76.28533172607422 14.679249763488766 L 76.24275207519531 15.528583526611325 L 76.18087768554688 16.38400077819824 L 76.17916870117188 16.407667160034176 L 76.08125305175781 17.5672492980957 L 75.99666595458984 18.47724914550781 L 75.8905029296875 19.41875076293945 L 75.74341583251953 20.643749237060543 L 75.61566925048828 21.616750717163082 L 75.46575164794922 22.622999191284176 L 75.26950073242188 23.914249420166012 L 75.09683227539062 24.953166961669915 L 74.8505859375 26.310249328613274 L 74.43758392333984 28.490167617797844 L 74.14216613769531 29.9139175415039 L 73.63583374023438 32.23324966430663 L 73.51197814941406 32.76800155639648 L 73.29083251953125 33.72283172607421 L 72.68766784667969 36.18508148193359 L 72.29308319091797 37.74133300781249 L 71.95475006103516 39.02816772460937 L 71.51058197021484 40.650249481201165 L 70.95233154296875 42.655166625976555 L 70.45899963378906 44.34308242797851 L 69.8499984741211 46.42499923706054 L 66.67500305175781 46.42499923706054 L 65.53600311279297 46.42499923706054 L 62.849998474121094 46.42499923706054 L 62.849998474121094 43.42499923706054 L 65.53600311279297 43.42499923706054 L 66.67500305175781 43.42499923706054 L 66.67500305175781 40.42499923706054 L 65.53600311279297 40.42499923706054 L 62.849998474121094 40.42499923706054 L 59.849998474121094 40.42499923706054 L 59.849998474121094 23.424999237060543 L 59.736000061035156 19.740999221801754 L 59.395999908447266 16.069999694824215 L 58.83100128173828 12.428000450134274 L 58.04199981689453 8.826999664306639 L 57.034000396728516 5.281000137329101 L 55.80799865722656 1.8049999475479122 L 55.04452896118164 1.1102230246251565e-16 L 54.37200164794922 -1.5900000333786006 L 52.729000091552734 -4.889999866485595 L 50.88600158691406 -8.081999778747557 L 48.849998474121094 -11.15499973297119 L 46.62799835205078 -14.095999717712399 L 44.66849136352539 -16.38400077819824 L 44.22999954223633 -16.895999908447262 L 41.66400146484375 -19.541999816894528 L 38.939998626708984 -22.02499961853027 L 36.06800079345703 -24.336000442504876 L 33.058998107910156 -26.465999603271477 L 32.768001556396484 -26.646284103393548 L 29.926000595092773 -28.406999588012688 L 26.67799949645996 -30.15099906921386 L 23.32900047302246 -31.690999984741204 L 20.549983978271484 -32.76800155639648 L 19.892000198364258 -33.022998809814446 L 16.3799991607666 -34.13999938964843 L 12.805000305175781 -35.03900146484374 L 9.180999755859375 -35.71699905395507 L 5.5229997634887695 -36.169998168945305 L 1.843999981880188 -36.39699935913085 L 0 -36.39699935913085 L -1.8420000076293945 -36.39699935913085 L -5.520999908447266 -36.169998168945305 L -9.178999900817871 -35.71699905395507 L -12.803000450134277 -35.03900146484374 L -16.37700080871582 -34.13999938964843 L -16.384000778198242 -34.13777542114257 L -19.889999389648438 -33.022998809814446 L -20.547985076904297 -32.76800155639648 L -23.32699966430664 -31.690999984741204 L -26.676000595092773 -30.15099906921386 L -29.92300033569336 -28.406999588012688 L -32.768001556396484 -26.644989013671868 L -33.05699920654297 -26.465999603271477 L -36.066001892089844 -24.336000442504876 L -38.9379997253418 -22.02499961853027 L -41.6619987487793 -19.541999816894528 L -44.22800064086914 -16.895999908447262 L -44.6664924621582 -16.38400077819824 L -46.625999450683594 -14.095999717712399 L -48.84700012207031 -11.15499973297119 L -50.882999420166016 -8.081999778747557 L -52.72600173950195 -4.889999866485595 L -54.369998931884766 -1.5900000333786006 L -55.04253005981445 1.1102230246251565e-16 L -55.805999755859375 1.8049999475479122 L -57.03099822998047 5.281000137329101 L -58.040000915527344 8.826999664306639 L -58.82899856567383 12.428000450134274 L -59.39400100708008 16.069999694824215 L -59.73400115966797 19.740999221801754 L -59.847999572753906 23.424999237060543 L -59.847999572753906 40.42499923706054 L -60.37405776977539 40.42499923706054 L -61.64970779418945 40.42499923706054 L -62.847999572753906 40.42499923706054 L -65.53600311279297 40.42499923706054 L -66.99800109863281 40.42499923706054 L -66.99800109863281 43.42499923706054 L -65.53600311279297 43.42499923706054 L -62.847999572753906 43.42499923706054 L -62.847999572753906 46.42499923706054 L -65.53600311279297 46.42499923706054 L -69.8479995727539 46.42499923706054 L -70.4114990234375 44.502918243408196 L -70.72654724121094 43.42499923706054 L -70.90483093261719 42.81499862670898 L -71.5660400390625 40.42499923706054 L -71.58441925048828 40.35858154296874 L -72.02857971191406 38.736499786376946 L -72.48591613769531 36.97308349609374 L -72.88050079345703 35.41683197021484 L -73.4130859375 33.177417755126946 L -73.50790405273438 32.76800155639648 L -73.7580795288086 31.687833786010735 L -73.99433135986328 30.612749099731438 L -74.28974914550781 29.188999176025384 L -74.70158386230469 27.12750053405761 L -74.94741821289062 25.770416259765618 L -75.28108215332031 23.823249816894528 L -75.47775268554688 22.53199958801269 L -75.73441314697266 20.69625091552734 L -75.8810806274414 19.471250534057614 L -76.06366729736328 17.743415832519528 L -76.16200256347656 16.583833694458004 L -76.27108001708984 14.96100044250488 L -76.32025146484375 13.86683368682861 L -76.35874938964844 12.345499992370602 L -76.36000061035156 11.315917015075682 L -76.32908630371094 9.893750190734862 L -76.28324890136719 8.927499771118162 L -76.18524932861328 7.599833488464354 L -76.09358215332031 6.695666790008543 L -75.93258666992188 5.470083236694335 L -75.79591369628906 4.626333236694335 L -75.57716369628906 3.503999948501586 L -75.39800262451172 2.7185833454132076 L -75.12733459472656 1.6913332939147945 L -74.90691375732422 0.9617499709129332 L -74.58958435058594 0.021416665986180413 L -74.58137512207031 1.1102230246251565e-16 L -74.33041381835938 -0.6548333168029783 L -73.97225189208984 -1.5158333778381343 L -73.67725372314453 -2.1429166793823238 L -73.28233337402344 -2.9333333969116206 L -72.954833984375 -3.5145833492279044 L -72.52725219726562 -4.244333267211913 L -72.1709976196289 -4.78474998474121 L -71.71483612060547 -5.462583541870116 L -71.33399963378906 -5.967166900634765 L -70.85333251953125 -6.600083351135252 L -70.35283660888672 -7.196833133697508 L -69.9520034790039 -7.6718335151672346 L -68.9072494506836 -8.786582946777342 L -68.06600189208984 -9.672833442687987 L -65.97533416748047 -11.750666618347166 L -65.53600311279297 -12.18402290344238 L -65.11783599853516 -12.596500396728512 L -64.28491973876953 -13.453583717346188 L -63.31425094604492 -14.508250236511227 L -62.917999267578125 -14.954916954040524 L -62.450164794921875 -15.522500038146969 L -62.07225036621094 -15.98791694641113 L -61.77385711669922 -16.38400077819824 L -61.61433410644531 -16.595750808715817 L -61.257667541503906 -17.08200073242187 L -60.80908203125 -17.74116706848144 L -60.474082946777344 -18.251167297363278 L -60.12244415283203 -18.82606697082519 L -60.033084869384766 -18.972166061401364 L -59.79136276245117 -19.384702682495114 L -59.720584869384766 -19.505500793457028 L -59.287166595458984 -20.299417495727536 L -58.996334075927734 -20.855249404907223 L -58.57866668701172 -21.712165832519528 L -58.05158233642578 -22.881332397460934 L -57.327667236328125 -24.588649749755852 L -57.316001892089844 -24.616167068481438 L -56.3668327331543 -27.063667297363274 L -55.04499816894531 -30.468584060668938 L -54.5341682434082 -31.661500930786126 L -54.18241500854492 -32.46941757202148 L -54.037479400634766 -32.76800155639648 L -53.8038330078125 -33.24933242797851 L -53.516334533691406 -33.81933212280273 L -53.10216522216797 -34.56774902343749 L -52.78466796875 -35.11399841308593 L -52.32500076293945 -35.82858276367187 L -51.97041702270508 -36.347332000732415 L -51.45650100708008 -37.02399826049804 L -51.05816650390625 -37.51233291625976 L -50.48649978637695 -38.14291763305663 L -50.037750244140625 -38.59875106811523 L -49.40074920654297 -39.18325042724609 L -48.894500732421875 -39.605335235595696 L -48.18283462524414 -40.14491653442382 L -47.61408233642578 -40.53200149536132 L -46.819000244140625 -41.02783203124999 L -46.18024826049805 -41.38074874877929 L -45.29766845703125 -41.83166503906249 L -44.58391571044922 -42.1500015258789 L -43.60858154296875 -42.55658340454101 L -42.81399917602539 -42.841167449951165 L -41.73775100708008 -43.2051658630371 L -40.85691833496094 -43.45766830444335 L -39.67216491699219 -43.78200149536132 L -39.19758224487305 -43.8965835571289 L -37.89558410644531 -44.182998657226555 L -36.87516784667969 -44.38925170898437 L -35.78841781616211 -44.58349990844726 L -34.6696662902832 -44.76183319091796 L -33.01066589355469 -45.00333404541015 L -32.768001556396484 -45.03345108032226 L -31.788583755493164 -45.15499877929687 L -30.363500595092773 -45.320667266845696 L -29.304166793823242 -45.42216491699218 L -27.975000381469727 -45.54925155639648 L -26.82699966430664 -45.6431655883789 L -24.910165786743164 -45.76858520507812 L -23.47016716003418 -45.872749328613274 L -22.607101440429688 -45.91926956176757 L -21.91641616821289 -45.95650100708007 L -19.79075050354004 -46.06441497802734 L -18.120332717895508 -46.12900161743163 L -16.384000778198242 -46.18751144409179 L -14.86591625213623 -46.23866653442382 L -13.076333045959473 -46.28533172607421 L -8.805166244506836 -46.358833312988274 L -6.894750118255615 -46.38925170898437 L -4.323916435241699 -46.40341567993163 L -1.3629167079925537 -46.42033386230468 L -1.2713152170181274 -46.42023849487304 L 0 -46.41891860961913 L 1.44350004196167 -46.41741561889648 L 4.560583114624023 -46.40824890136718 L 8.177833557128906 -46.37149810791015 L 10.588666915893555 -46.33608245849609 L 12.247666358947754 -46.30458450317382 L 14.037249565124512 -46.257915496826165 L 17.07349967956543 -46.16983413696288 L 18.74391746520996 -46.10525131225585 L 21.429000854492188 -45.98391723632812 L 22.983165740966797 -45.90016555786132 L 24.204082489013672 -45.827835083007805 L 25.29075050354004 -45.751167297363274 L 27.505666732788086 -45.584915161132805 L 28.536916732788086 -45.49658203124999 L 29.81191635131836 -45.35783386230468 L 31.7497501373291 -45.16241836547851 L 32.624168395996094 -45.05508422851562 L 32.736595153808594 -45.039558410644524 L 32.768001556396484 -45.035224914550774 L 33.50833511352539 -44.932998657226555 L 34.32500076293945 -44.81866836547851 L 35.797916412353516 -44.57191848754882 L 36.63083267211914 -44.4365005493164 L 36.764286041259766 -44.41002655029296 L 37.401668548583984 -44.283584594726555 L 38.06549835205078 -44.151165008544915 L 39.26716613769531 -43.86999893188476 L 39.99091720581055 -43.70208358764648 L 40.018001556396484 -43.69432067871093 L 40.87174987792969 -43.44958496093749 L 41.951499938964844 -43.13925170898437 L 42.938499450683594 -42.79449844360351 L 43.73350143432617 -42.50991821289062 L 44.633583068847656 -42.12783432006835 L 45.34733200073242 -41.80950164794921 L 46.16808319091797 -41.38949966430663 L 46.80641555786133 -41.03658294677734 L 47.551918029785156 -40.57574844360351 L 48.1210823059082 -40.188667297363274 L 48.79308319091797 -39.690498352050774 L 49.152000427246094 -39.39101028442382 L 49.29891586303711 -39.26841735839843 L 49.90325164794922 -38.733501434326165 L 50.35200119018555 -38.27766799926757 L 50.8962516784668 -37.70541763305663 L 51.29458236694336 -37.217082977294915 L 51.78575134277344 -36.60691833496093 L 52.23025131225586 -35.95999908447265 L 52.584835052490234 -35.4412498474121 L 52.987335205078125 -34.76458358764648 L 53.304832458496094 -34.21833419799804 L 53.671749114990234 -33.51483154296874 L 53.959251403808594 -32.944831848144524 L 54.03798294067383 -32.76800155639648 L 54.616085052490234 -31.469583511352532 L 55.126914978027344 -30.276666641235344 L 56.33091735839844 -27.15875053405761 L 57.28049850463867 -24.711250305175774 L 57.91166687011719 -23.19108390808105 L 58.438331604003906 -22.021917343139645 L 59.16400146484375 -20.539667129516598 L 59.45524978637695 -19.983833312988278 L 59.87350082397461 -19.25175094604492 L 60.185585021972656 -18.718416213989254 L 60.65224838256836 -17.989250183105465 L 60.98725128173828 -17.47924995422363 L 61.50641632080078 -16.75533294677734 L 61.779109954833984 -16.38400077819824 L 61.86349868774414 -16.269083023071286 L 62.40599822998047 -15.58950042724609 L 62.78350067138672 -15.12408351898193 L 63.33824920654297 -14.490583419799801 L 63.734500885009766 -14.043916702270504 L 64.2979965209961 -13.44483375549316 L 65.13092041015625 -12.587750434875485 L 65.53600311279297 -12.183807373046871 L 67.4088363647461 -10.316249847412108 L 68.2663345336914 -9.470417022705076 L 69.10758209228516 -8.584166526794432 L 70.20891571044922 -7.374916553497313 L 70.60974884033203 -6.899916648864744 L 71.13358306884766 -6.243083477020262 L 71.51441955566406 -5.738500118255614 L 72.01258087158203 -5.033833503723144 L 72.36924743652344 -4.493416786193847 L 72.8376693725586 -3.730416774749755 L 73.16516876220703 -3.1491665840148917 L 73.5979995727539 -2.3185000419616695 L 73.89258575439453 -1.6914166212081905 L 74.28458404541016 -0.7808333039283749 L 74.54374694824219 -0.10458333045244203 z" fill="none" stroke="rgb(255,0,0)" stroke-width="0.001mm" />
</svg>