<?xml version="1.0" standalone="no"?>
<!DOCTYPE svg PUBLIC "-//W3C//DTD SVG 1.1//EN"
  "http://www.w3.org/Graphics/SVG/1.1/DTD/svg11.dtd">
<svg width="41.540000915527344mm" height="18.999999999999996mm" viewBox="-20.770000457763672 -9.499999999999998 41.540000915527344 18.999999999999996" xmlns="http://www.w3.org/2000/svg" version="1.1">
	<title>svgOutput</title>
	<desc>made with tinkercad</desc>
<path d="M 19.746000289916992 -5.098000049591064 L 19.770000457763672 -4.999999999999999 L 19.770000457763672 -1.9999999999999996 L 16.535306930541992 -1.9999999999999996 L 16.384000778198242 -1.9999999999999996 L 11.770000457763672 -1.9999999999999996 L 11.770000457763672 -1.4999999999999996 L 16.384000778198242 -1.4999999999999996 L 16.412857055664062 -1.4999999999999996 L 19.770000457763672 -1.4999999999999996 L 19.770000457763672 1.1102230246251565e-16 L 19.770000457763672 1.4999999999999996 L 16.412857055664062 1.4999999999999996 L 16.384000778198242 1.4999999999999996 L 11.770000457763672 1.4999999999999996 L 11.770000457763672 1.9999999999999996 L 16.384000778198242 1.9999999999999996 L 16.535306930541992 1.9999999999999996 L 19.770000457763672 1.9999999999999996 L 19.770000457763672 4.999999999999999 L 19.746000289916992 5.098000049591064 L 19.674999237060547 5.19099998474121 L 19.55900001525879 5.277999877929687 L 19.40399932861328 5.3540000915527335 L 18.99799919128418 5.461999893188476 L 18.520000457763672 5.499999999999999 L 18.04199981689453 5.461999893188476 L 17.63599967956543 5.3540000915527335 L 17.481000900268555 5.277999877929687 L 17.364999771118164 5.19099998474121 L 17.29400062561035 5.098000049591064 L 17.270000457763672 4.999999999999999 L 17.21918296813965 4.999999999999999 L 17.110332489013672 4.999999999999999 L 16.914026260375977 4.999999999999999 L 16.384000778198242 4.999999999999999 L 11.770000457763672 4.999999999999999 L 11.770000457763672 8.499999999999998 L 0 8.499999999999998 L -1.9700000286102295 8.499999999999998 L -19.770000457763672 8.499999999999998 L -19.770000457763672 6.5500001907348615 L -19.770000457763672 3.450000047683715 L -19.770000457763672 -8.499999999999998 L 0 -8.499999999999998 L 11.770000457763672 -8.499999999999998 L 11.770000457763672 -4.999999999999999 L 16.384000778198242 -4.999999999999999 L 17.270000457763672 -4.999999999999999 L 17.29400062561035 -5.098000049591064 L 17.364999771118164 -5.19099998474121 L 17.481000900268555 -5.277999877929687 L 17.63599967956543 -5.3540000915527335 L 18.04199981689453 -5.461999893188476 L 18.520000457763672 -5.499999999999999 L 18.99799919128418 -5.461999893188476 L 19.40399932861328 -5.3540000915527335 L 19.55900001525879 -5.277999877929687 L 19.674999237060547 -5.19099998474121 L 19.746000289916992 -5.098000049591064 M -12.069999694824219 6.5500001907348615 L -1.9700000286102295 6.5500001907348615 L -1.9700000286102295 3.450000047683715 L -12.069999694824219 3.450000047683715 L -12.069999694824219 6.5500001907348615 z" fill="none" stroke="rgb(255,0,0)" stroke-width="0.001mm" />
</svg>