<?xml version="1.0" encoding="UTF-8" standalone="no"?>
<svg
   xmlns:dc="http://purl.org/dc/elements/1.1/"
   xmlns:cc="http://creativecommons.org/ns#"
   xmlns:rdf="http://www.w3.org/1999/02/22-rdf-syntax-ns#"
   xmlns:svg="http://www.w3.org/2000/svg"
   xmlns="http://www.w3.org/2000/svg"
   xmlns:sodipodi="http://sodipodi.sourceforge.net/DTD/sodipodi-0.dtd"
   xmlns:inkscape="http://www.inkscape.org/namespaces/inkscape"
   width="42.625999450683594mm"
   height="42.52199935913085mm"
   viewBox="-20.312999725341797 -20.260999679565426 42.625999450683594 42.52199935913085"
   version="1.1"
   id="svg4629"
   sodipodi:docname="Tower Gear both.svg"
   inkscape:version="0.92.4 (5da689c313, 2019-01-14)">
  <metadata
     id="metadata4635">
    <rdf:RDF>
      <cc:Work
         rdf:about="">
        <dc:format>image/svg+xml</dc:format>
        <dc:type
           rdf:resource="http://purl.org/dc/dcmitype/StillImage" />
        <dc:title>svgOutput</dc:title>
      </cc:Work>
    </rdf:RDF>
  </metadata>
  <defs
     id="defs4633" />
  <sodipodi:namedview
     pagecolor="#ffffff"
     bordercolor="#666666"
     borderopacity="1"
     objecttolerance="10"
     gridtolerance="10"
     guidetolerance="10"
     inkscape:pageopacity="0"
     inkscape:pageshadow="2"
     inkscape:window-width="2560"
     inkscape:window-height="1299"
     id="namedview4631"
     showgrid="false"
     showguides="false"
     inkscape:zoom="5.8738223"
     inkscape:cx="90.488745"
     inkscape:cy="72.913015"
     inkscape:window-x="-13"
     inkscape:window-y="-13"
     inkscape:window-maximized="1"
     inkscape:current-layer="layer1" />
  <title
     id="title4623">svgOutput</title>
  <desc
     id="desc4625">made with tinkercad</desc>
  <g
     inkscape:groupmode="layer"
     id="layer2"
     inkscape:label="Layer 2"
     style="display:inline">
    <path
       inkscape:connector-curvature="0"
       style="fill:#000000;fill-opacity:1;stroke:none;stroke-width:0.00370417;stroke-miterlimit:4;stroke-dasharray:none"
       d="m 8.5423839,-14.130035 h -0.350379 -0.654 l -0.693358,1.200513 -0.3704919,0.641488 -0.06815,0.117999 1.1320009,1.960001 h 0.654 1.609 l 1.1319981,-1.960001 -0.06815,-0.117999 -0.428955,-0.742712 -0.09875,-0.170983 -0.09715,-0.168199 -0.3410011,-0.590424 -0.098,-0.169683 h -0.571804 -0.686816 m 2.2916201,28.357 -1.1198731,-1.939002 -0.01212,-0.02101 h -1.509998 -0.753001 l -0.01212,0.02101 -1.1198709,1.939002 0.06295,0.109 1.0690459,1.850999 h 0.753002 0.25138 1.258618 l 0.5380011,-0.931519 0.531048,-0.91948 0.06295,-0.109 M -12.521651,-2.538147e-5 -13.109021,-1.0170244 h -2.263 l -0.58737,1.01699901853 -0.424631,0.73522700147 -0.119999,0.207773 0.119999,0.20777398 0.518194,0.897226 0.493807,0.855 h 2.263 l 0.493806,-0.855 0.327194,-0.566519 0.311,-0.53848098 -0.311,-0.53848 z"
       id="path4599"
       sodipodi:nodetypes="cccccccccccccccccccccccccccccccccccccccccccccccc" />
    <path
       sodipodi:type="star"
       style="opacity:1;fill:#000000;fill-opacity:1;stroke:none;stroke-width:0.00264583;stroke-linecap:round;stroke-miterlimit:4;stroke-dasharray:none;stroke-opacity:1"
       id="path1388"
       sodipodi:sides="6"
       sodipodi:cx="-14.046264"
       sodipodi:cy="1.3347178"
       sodipodi:r1="3.6230111"
       sodipodi:r2="3.1376197"
       sodipodi:arg1="1.0254768"
       sodipodi:arg2="1.5490755"
       inkscape:flatsided="true"
       inkscape:rounded="0"
       inkscape:randomized="0"
       d="m -12.167039,4.4322531 -3.622157,0.078688 -1.879224,-3.0975354 1.742932,-3.1762237 3.622156,-0.078688 1.879225,3.0975354 z"
       transform="matrix(0.6869786,0.01376214,-0.00898829,0.68315675,-4.579959,0.20268934)" />
    <path
       sodipodi:type="star"
       style="opacity:1;fill:#000000;fill-opacity:1;stroke:none;stroke-width:0.00264583;stroke-linecap:round;stroke-miterlimit:4;stroke-dasharray:none;stroke-opacity:1"
       id="path1388-2"
       sodipodi:sides="6"
       sodipodi:cx="-14.046264"
       sodipodi:cy="1.3347178"
       sodipodi:r1="3.6230111"
       sodipodi:r2="3.1376197"
       sodipodi:arg1="1.0254768"
       sodipodi:arg2="1.5490755"
       inkscape:flatsided="true"
       inkscape:rounded="0"
       inkscape:randomized="0"
       d="m -12.167039,4.4322531 -3.622157,0.078688 -1.879224,-3.0975354 1.742932,-3.1762237 3.622156,-0.078688 1.879225,3.0975354 z"
       transform="matrix(0.6869786,0.01376214,-0.00898829,0.68315675,18.266438,13.504543)" />
    <path
       sodipodi:type="star"
       style="opacity:1;fill:#000000;fill-opacity:1;stroke:none;stroke-width:0.00264583;stroke-linecap:round;stroke-miterlimit:4;stroke-dasharray:none;stroke-opacity:1"
       id="path1388-2-7"
       sodipodi:sides="6"
       sodipodi:cx="-14.046264"
       sodipodi:cy="1.3347178"
       sodipodi:r1="3.6230111"
       sodipodi:r2="3.1376197"
       sodipodi:arg1="1.0254768"
       sodipodi:arg2="1.5490755"
       inkscape:flatsided="true"
       inkscape:rounded="0"
       inkscape:randomized="0"
       d="m -12.167039,4.4322531 -3.622157,0.078688 -1.879224,-3.0975354 1.742932,-3.1762237 3.622156,-0.078688 1.879225,3.0975354 z"
       transform="matrix(0.6869786,0.01376214,-0.00898829,0.68315675,18.297987,-12.867388)" />
  </g>
  <g
     inkscape:groupmode="layer"
     id="layer1"
     inkscape:label="Layer 1"
     style="display:inline">
    <path
       style="fill:none;stroke:#ff0000;stroke-width:0.001mm"
       d="m 17.775,-10.469 -0.569001,0.8269998 -0.323,0.3670006 -0.358999,0.316 -0.139999,0.089839 -0.047,0.030161 -0.209999,0.1999998 -0.119002,0.2629995 -0.0082,0.184 -0.0048,0.106 0.096,0.2730002 0.087,0.151 0.189002,0.2200003 0.017,0.0088 0.24,0.1242023 0.288,0.028 0.276998,-0.081 0.198,-0.1020002 0.454001,-0.1529999 0.479,-0.096 0.09544,-0.00764 L 19.32,-7.7930002 19.667007,-7.0131521 19.792999,-6.73 19.173878,-6.1440001 19.063999,-6.04 l -0.391998,0.2909999 -0.417002,0.2350002 -0.207998,0.079 -0.246,0.1519999 -0.03165,0.042686 L 17.629,-5.0510001 17.556,-4.77 l 0.037,0.2870002 0.055,0.1659999 0.120069,0.2209997 0.01793,0.033 0.224001,0.1840003 0.275999,0.087 0.288,-0.022 0.215001,-0.058 0.475,-0.055 0.489,0.005 0.727,0.094985 0.267999,0.035015 L 20.99,-2.654 20.48,-2.3427632 20.132999,-2.131 l -0.180646,0.083 -0.263354,0.121 -0.455999,0.143 -0.22,0.034 -0.273,0.097 -0.216,0.192 -0.130001,0.259 -0.023,0.28800003 0.018,0.17399996 0.083,0.278 L 18.653,-0.236 18.857681,-0.11938852 18.903999,-0.093 19.191,-0.055 19.413,-0.067 19.889999,-0.022 19.987869,0 20.365999,0.085 20.48,0.12520696 21.313,0.419 V 1.581 L 20.48,1.8747931 20.365999,1.915 l -0.476,0.1070001 -0.275598,0.026 -0.201401,0.019 -0.222,-0.012 -0.287001,0.038 -0.250999,0.143 L 18.472,2.4619999 18.389,2.74 l -0.018,0.174 0.023,0.2879999 0.08481,0.1689665 0.04519,0.090034 0.174973,0.1555307 0.04103,0.036469 0.273,0.097 0.22,0.034 0.455999,0.1430001 0.367825,0.1690002 0.07618,0.035 0.347001,0.2117629 0.51,0.3112369 -0.242001,1.138 -0.267999,0.035015 -0.727,0.094985 -0.489,0.005 -0.475,-0.055 -0.215001,-0.058 -0.288,-0.022 -0.275999,0.087 -0.224001,0.184 -0.04401,0.081 L 17.648007,6.317 17.593,6.4829998 17.556,6.77 l 0.073,0.2810001 0.140354,0.1893144 0.03165,0.042686 0.246,0.1519999 0.207998,0.079 0.417002,0.2350002 L 19.063999,8.04 19.224592,8.1920004 19.792999,8.7299995 19.32,9.7930002 l -1,-0.08 -0.479,-0.096001 -0.454001,-0.1529999 -0.198,-0.1019992 -0.276998,-0.081 -0.05279,0.00513 -0.235208,0.022867 -0.24,0.1242027 -0.017,0.0088 -0.189002,0.2199993 -0.087,0.151 -0.096,0.2729999 0.013,0.29 0.119002,0.263 0.209999,0.2 0.047,0.03016 0.139999,0.08984 0.358999,0.316 0.323,0.367 0.569001,0.827 -0.683001,0.94 L 16.384001,13.198514 16.129999,13.123 15.681,12.93 l -0.412,-0.244 -0.172,-0.141 -0.255,-0.137 -0.287,-0.033 -0.279,0.077 -0.23,0.176 -0.118,0.13 -0.15,0.247 -0.048,0.286 0.05133,0.229775 0.01167,0.05222 0.163,0.239 0.158,0.157 0.272383,0.367 0.01262,0.017 0.24,0.426 0.385,0.927 -0.753915,0.678001 L 14.16,16.483 13.977708,16.384001 13.278,16.004 12.88,15.721 l -0.352,-0.324 -0.14,-0.173 -0.1,-0.08545 -0.12,-0.102545 -0.275,-0.091 -0.289,0.017 -0.261,0.124 -0.142,0.103 -0.199,0.211 -0.105,0.269 0.002,0.289 0.11,0.268 0.103635,0.158001 0.01837,0.028 0.199,0.434999 0.146,0.466 0.184,0.986999 -1.007,0.581002 L 9.9529333,18.282778 9.8900003,18.229 9.559,17.868999 9.2819996,17.479 9.1820002,17.281 9.0050001,17.051001 l -0.2490005,-0.146 -0.2859993,-0.043 -0.2779999,0.06605 -0.004,9.52e-4 L 8.0279999,17 7.79,17.164 7.6300001,17.406 7.5826716,17.63693 7.572,17.688999 7.624,17.974001 7.705,18.181 7.761435,18.431999 7.81,18.648001 7.855,19.135 7.83,20.138 6.7763734,20.48 6.724,20.497 6.7109885,20.48 6.1139998,19.700001 l -0.249,-0.42 L 5.6750002,18.841 5.618,18.625999 5.5250883,18.431999 5.493,18.365 5.2789998,18.17 5.0079999,18.068001 l -0.289,0.007 -0.171,0.036 -0.2669998,0.112 -0.1849999,0.181425 -0.022,0.02158 -0.0026,0.006 -0.091231,0.210228 -0.021165,0.04877 -0.009,0.289 0.036,0.220001 0.005,0.477998 -0.056,0.486001 L 3.909863,20.268845 3.8592377,20.48 3.701,21.139999 2.5450001,21.261 2.1734648,20.48 2.1140001,20.355 2.0480001,20.159115 1.9579999,19.892 1.863,19.423 1.853,19.201 1.784,18.92 1.6160001,18.684 1.372,18.528999 1.0880001,18.475 H 0.912 L 0.62800002,18.529 0.46672016,18.631453 0.384,18.684 0.24798951,18.875063 0.21600001,18.92 l -0.069,0.281 -0.01,0.222 L 0.042,19.892 0,20.016653 -0.114,20.355 -0.17346469,20.48 -0.54500002,21.261 -1.701,21.139999 -1.8592377,20.48 l -0.075762,-0.316 -0.056,-0.486001 0.005,-0.477998 0.036,-0.220001 -0.009,-0.289 -0.1123961,-0.259001 -0.0026,-0.006 -0.207,-0.203001 -0.2670002,-0.112 -0.171,-0.036 -0.2889998,-0.007 L -3.279,18.17 l -0.214,0.195 -0.032088,0.067 -0.092912,0.194 -0.057,0.215001 -0.19,0.439001 -0.2310002,0.389637 -0.018,0.03036 L -4.7109885,20.48 -4.724,20.497 -4.776373,20.48 l -1.0536265,-0.342 -0.025,-1.003 0.045,-0.486999 0.048565,-0.216002 0.056435,-0.250999 0.081,-0.206999 0.052,-0.285002 -0.058,-0.282999 L -5.79,17.164 -6.0279999,17 -6.1880002,16.929 -6.4699998,16.862 -6.756,16.905 l -0.2490001,0.146 -0.1770001,0.229999 -0.1,0.198 -0.2769998,0.39 -0.3309999,0.360001 -0.2375598,0.202999 -0.064441,0.05507 -0.4609995,0.393935 -1.0069999,-0.581002 0.184,-0.986999 0.1459999,-0.466 0.1990003,-0.434999 0.018365,-0.028 0.1036349,-0.158001 0.1099996,-0.268 0.002,-0.289 -0.1049996,-0.269 -0.1990003,-0.211 -0.1420002,-0.103 -0.2609997,-0.124 -0.1926365,-0.01133 -0.096363,-0.0057 -0.2247303,0.07437 -0.05027,0.01663 -0.22,0.188 -0.14,0.173 -0.352,0.324 -0.398,0.283 -0.06246,0.03392 -0.637246,0.346079 -0.182292,0.099 -0.110085,-0.099 -0.01792,-0.01611 -0.736,-0.661889 0.385,-0.927 0.24,-0.426 0.111,-0.149557 0.174,-0.234443 0.158,-0.157 0.163,-0.239 0.063,-0.282 -0.048,-0.286 -0.15,-0.247 -0.118,-0.13 -0.23,-0.176 -0.012,-0.0033 -0.267,-0.07369 -0.234372,0.02695 -0.05263,0.0061 -0.255,0.137 -0.172,0.141 -0.412,0.244 -0.449,0.193 -0.09592,0.02852 L -15.092,13.409 -15.589759,12.723945 -15.775,12.469 l 0.124533,-0.181 0.444467,-0.646 0.323,-0.367 0.359,-0.316 0.187,-0.12 0.21,-0.2 0.119,-0.263 0.0061,-0.136 0.0069,-0.154 -0.096,-0.2730003 -0.087,-0.151 -0.09675,-0.1126194 -0.09225,-0.1073799 -0.167726,-0.086801 -0.08927,-0.0462 -0.23521,-0.022867 -0.05279,-0.00513 -0.277,0.081 -0.198,0.1019992 -0.454,0.1529999 -0.479,0.096001 -0.064,0.00512 L -17.32,9.7930002 -17.792999,8.7299995 -17.224592,8.1920004 -17.063999,8.04 l 0.391998,-0.2909999 0.288,-0.162302 0.129002,-0.072698 0.207998,-0.079 L -15.801,7.283 -15.629,7.0510001 -15.556,6.77 l -0.037,-0.2870002 -0.055,-0.1659999 -0.138,-0.2539997 -0.224,-0.184 -0.275999,-0.087 -0.098,0.00749 -0.189998,0.014514 -0.215001,0.058 -0.475,0.055 -0.489,-0.005 -0.08664,-0.011319 -0.908361,-0.118681 -0.242001,-1.138 0.857001,-0.5229998 0.07618,-0.035 0.36782,-0.1690044 0.455999,-0.1430001 0.22,-0.034 0.273,-0.097 0.216,-0.1920001 0.130001,-0.2590001 0.01,-0.1252172 0.013,-0.1627827 -0.013,-0.1256666 -0.005,-0.048333 -0.083,-0.2780001 -0.181,-0.2259998 -0.204681,-0.1166115 -0.04632,-0.026389 -0.287001,-0.038 -0.222,0.012 -0.201401,-0.019 L -17.89,2.0219998 -18.365999,1.915 -19.313,1.581 V 0.419 l 0.947001,-0.334 0.37813,-0.085 0.09787,-0.022 0.476999,-0.045 0.222,0.012 0.287001,-0.038 0.250999,-0.143 0.181,-0.22600001 0.083,-0.278 0.005,-0.0483333 0.013,-0.12566661 -0.013,-0.16278268 -0.01,-0.1252173 -0.08481,-0.1689667 L -16.524,-1.461 -16.698973,-1.6165307 -16.74,-1.653 l -0.273,-0.097 -0.22,-0.034 -0.455999,-0.143 -0.263354,-0.1210001 -0.180646,-0.083 -0.857001,-0.523 0.242001,-1.1380001 L -17.753,-3.922 l 0.489,-0.005 0.475,0.055 0.215001,0.058 0.189998,0.014514 0.098,0.00749 0.275999,-0.087 0.224,-0.1840003 0.01793,-0.033 0.120071,-0.2209997 0.055,-0.1659999 L -15.556,-4.77 -15.629,-5.0510001 -15.801,-5.283 l -0.246001,-0.1519999 -0.207998,-0.079 -0.129002,-0.072698 -0.288,-0.162302 -0.391998,-0.2909999 -0.729,-0.69 L -17.32,-7.793 l 0.935999,0.07488 0.064,0.00512 0.479,0.096 0.454,0.1529999 0.198,0.1020002 0.277,0.081 0.288,-0.028 0.257,-0.1329999 0.189,-0.2200003 0.087,-0.151 0.096,-0.2730002 -0.0048,-0.106 -0.0038,-0.083695 -0.0045,-0.1003046 -0.09686,-0.2140598 -0.02214,-0.04894 -0.21,-0.1999998 -0.187,-0.1199999 -0.359,-0.316 -0.323,-0.3670006 -0.04914,-0.071414 -0.519759,-0.755586 0.505308,-0.695446 0.177692,-0.244554 0.960843,0.285657 0.0012,3.43e-4 0.449,0.193 0.412,0.244 0.172,0.141 0.255,0.137 0.287,0.033 0.267,-0.07369 0.012,-0.0033 0.23,-0.176 0.118,-0.13 0.15,-0.247 0.048,-0.286 -0.05133,-0.229775 -0.01167,-0.05222 -0.163,-0.239 -0.158,-0.157 -0.174,-0.234443 -0.06276,-0.08456 -0.04824,-0.065 -0.24,-0.426 -0.385,-0.927 0.736,-0.661888 0.128,-0.115112 0.270677,0.147 0.611323,0.332 0.398,0.283 0.352,0.324 0.14,0.173 0.22,0.188 0.05027,0.01663 0.2247304,0.07437 0.2889995,-0.017 0.1305056,-0.062 0.1304941,-0.062 0.1420002,-0.103 0.1990003,-0.211 0.1049996,-0.269 -0.002,-0.289 -0.1099996,-0.268 -0.072151,-0.11 -0.049849,-0.076 -0.1990003,-0.435 -0.1459999,-0.466 -0.184,-0.986999 0.1455898,-0.084 0.8614101,-0.497 0.4609995,0.393935 0.1206122,0.103065 0.1184544,0.101223 0.062934,0.05378 0.3309999,0.36 0.2769999,0.39 0.1,0.198 0.1770001,0.23 0.046251,0.02712 0.2027488,0.118881 0.2860002,0.043 0.2819996,-0.067 L -6.0279999,-15 -5.79,-15.164 l 0.1599999,-0.242 0.047328,-0.23093 0.010672,-0.05207 -0.052,-0.285 -0.081,-0.207 -0.045642,-0.203001 -0.059358,-0.264 -0.045,-0.486999 0.025,-1.003 1.1059999,-0.359 0.6100002,0.796999 0.018,0.03036 0.2310002,0.389637 0.19,0.439001 0.057,0.215001 0.1159005,0.241998 0.0091,0.019 0.214,0.195 0.2710001,0.101999 0.2889998,-0.007 0.171,-0.036 0.2670002,-0.112 0.1641724,-0.161001 0.042828,-0.042 L -1.959,-16.691 -1.95,-16.98 -1.986,-17.200001 -1.991,-17.677999 -1.935,-18.164 -1.701,-19.139999 -0.54500002,-19.261 -0.114,-18.355 0,-18.016653 0.042,-17.892 l 0.09499999,0.469 0.01,0.222 0.069,0.281 L 0.384,-16.684 0.62800002,-16.528999 0.912,-16.475 H 1.0880001 L 1.372,-16.529 l 0.1612799,-0.102454 0.08272,-0.05255 0.1360104,-0.191063 0.03199,-0.04494 0.069,-0.281 0.01,-0.222 0.095,-0.469 0.09,-0.267115 0.066,-0.195885 0.431,-0.906 1.1559999,0.121001 0.2339999,0.975999 0.056,0.486001 -0.005,0.477998 -0.036,0.220001 0.009,0.289 0.1149998,0.264999 0.022,0.02158 0.020827,0.02042 0.1641726,0.161001 0.2669998,0.112 0.171,0.036 0.289,0.007 L 5.2789998,-16.17 5.493,-16.365 l 0.0091,-0.019 0.1159005,-0.241998 0.057,-0.215001 0.1899996,-0.439001 0.249,-0.42 0.049078,-0.06412 L 6.724,-18.497 l 1.1059999,0.359 0.025,1.003 -0.045,0.486999 -0.059358,0.264 -0.045642,0.203001 -0.081,0.207 -0.052,0.285 0.058,0.283 L 7.79,-15.164 8.0279999,-15 l 0.1599998,0.071 0.004,9.5e-4 0.137373,0.03264 0.1406269,0.03341 0.1892852,-0.02846 0.096714,-0.01454 0.2027492,-0.118881 0.046251,-0.02712 0.1770001,-0.23 0.099999,-0.198 0.2770004,-0.39 0.3310003,-0.36 0.1813872,-0.155001 0.581612,-0.497 0.86141,0.497 0.14559,0.084 -0.184,0.986999 -0.146,0.466 -0.199,0.435 -0.04985,0.076 -0.07215,0.11 -0.11,0.268 -0.002,0.289 0.105,0.269 0.199,0.211 0.142,0.103 0.261,0.124 0.289,0.017 0.275,-0.091 0.12,-0.102545 0.1,-0.08545 0.14,-0.173 0.352,-0.324 0.398,-0.283 0.06246,-0.03392 L 14.16,-14.483 l 0.864,0.777 -0.385,0.927 -0.24,0.426 -0.04824,0.065 -0.236758,0.319 -0.158,0.157 -0.163,0.239 -0.063,0.282 0.048,0.286 0.15,0.247 0.118,0.13 0.117239,0.08971 0.112761,0.08629 0.178415,0.04924 0.100585,0.02776 0.234372,-0.02695 0.05263,-0.0061 0.255,-0.137 0.172,-0.141 0.412,-0.244 0.448999,-0.193 0.09592,-0.02852 0.158085,-0.047 0.707998,-0.210486 0.683001,0.94 m -9.2210001,-2.945 -0.3619995,0.102608 -0.079,0.02239 -0.3670001,0.277 -0.2419996,0.391 -0.062022,0.333 -0.021978,0.118 0.084,0.452 0.2419996,0.391 0.3670001,0.276 0.079,0.02257 0.3619995,0.103429 0.4580002,-0.042 0.4110002,-0.205 0.3099995,-0.34 0.1660004,-0.428 v -0.348 -0.111 l -0.1660004,-0.429 -0.3099995,-0.339 -0.4110002,-0.205 -0.4580002,-0.042 m -3.81075,4.0724997 -0.6472497,-0.1921148 -0.591167,-0.1754685 -0.1144998,-0.026167 -1.276,-0.2062492 -0.1169168,-0.011251 -1.29158328,-0.04125 -0.11741662,0.00375 L 0,-9.9336309 l -0.69766665,0.067131 -0.11599999,0.01875 -1.25949996,0.2878332 -0.1125834,0.033417 -1.21275,0.4454994 -0.1074166,0.047501 -1.1458335,0.5976667 -0.1005001,0.060916 -0.2620215,0.1829166 -0.7976451,0.5568338 -0.091833,0.07325 -0.9560833,0.8680834 -0.081667,0.084333 -0.8378329,0.9844999 -0.07025,0.094167 -0.3424173,0.5258698 -0.3624992,0.5567136 -0.057667,0.1023331 -0.1204329,0.2499165 -0.440567,0.9142501 -0.044084,0.1089168 -0.4070005,1.2264999 -0.029833,0.1135833 -0.2465829,1.2677501 -0.015,0.11649999 L -9.9382067,0 -9.9990835,0.94125003 V 1.05875 l 0.083417,1.28975 0.015,0.1164999 0.2465829,1.26775 0.029833,0.1135834 0.08285,0.2496669 0.324151,0.9768333 0.044084,0.1089163 0.5609999,1.1641669 0.057667,0.1023331 0.3624992,0.5567136 0.3424173,0.5258698 0.07025,0.094167 0.4825306,0.5670004 0.3553023,0.4174995 0.081667,0.084334 0.9560833,0.868083 0.091833,0.073251 1.0596666,0.7397499 0.1005001,0.06092 1.1458335,0.597667 0.1074166,0.0475 1.21275,0.4455 0.1125834,0.03342 1.25949996,0.287834 0.11599999,0.01875 L 0,11.933631 0.5884167,11.99025 0.70583332,11.994 1.9974166,11.95275 2.1143334,11.9415 l 1.276,-0.20625 0.1144998,-0.02617 1.2384167,-0.367584 0.11025,-0.0405 1.1815834,-0.5225 0.1041665,-0.05433 L 7.24475,10.054082 7.341084,9.986833 8.1920009,9.3081068 8.3512502,9.1810831 8.4381672,9.1021661 9.319554,8.1919994 l 0.016947,-0.0175 0.076166,-0.0895 0.77275,-1.0358333 0.06408,-0.098417 0.634333,-1.1256666 0.051,-0.1058331 0.484916,-1.1980834 0.037,-0.1115003 0.328167,-1.2494166 0.02242,-0.1152498 0.165,-1.2815001 0.0076,-0.11725 V 0.35374999 l -0.0076,-0.11725 L 11.941883,0 11.807333,-1.045 11.784917,-1.1602499 11.45675,-2.4096668 11.41975,-2.5211666 10.934834,-3.71925 10.883833,-3.8250833 10.2495,-4.9507499 10.185416,-5.0491667 9.4126663,-6.085 9.3365002,-6.1745 8.4381666,-7.1021667 8.3512497,-7.1810832 7.3410835,-7.9868331 7.24475,-8.0540829 7.0172157,-8.1920004 6.1392498,-8.7241669 l -0.1041665,-0.054333 -1.1815834,-0.5225 -0.11025,-0.040501 M 8.4549999,12.982 8.1920004,13.057143 8.0139999,13.108 l -0.3670001,0.277 -0.2419996,0.39 -0.084,0.452 0.084,0.451 0.2419996,0.391 0.3670001,0.277 0.1780005,0.05045 0.2629995,0.07455 0.4580002,-0.042 0.4110003,-0.205 0.3099994,-0.339 0.1660004,-0.429 v -0.12 -0.339 L 9.6339998,13.569 9.3240004,13.229 8.9130001,13.024 8.4549999,12.982 M -14.798,-0.176 -15.030549,0 -15.164,0.101 l -0.242,0.39 -0.085,0.45200002 0.085,0.45100008 0.242,0.3909999 0.366,0.277 0.442,0.126 0.458,-0.043 0.411,-0.2049999 L -13.178,1.601 -13.012,1.173 V 0.713 L -13.178,0.285 -13.437015,0 -13.487,-0.055 l -0.411,-0.204 -0.458,-0.043 z"
       id="path4627"
       inkscape:connector-curvature="0" />
  </g>
</svg>
