<?xml version="1.0" standalone="no"?>
<!DOCTYPE svg PUBLIC "-//W3C//DTD SVG 1.1//EN"
  "http://www.w3.org/Graphics/SVG/1.1/DTD/svg11.dtd">
<svg width="61.06999969482422mm" height="207.75399780273432mm" viewBox="-30.53499984741211 -103.87699890136716 61.06999969482422 207.75399780273432" xmlns="http://www.w3.org/2000/svg" version="1.1">
	<title>svgOutput</title>
	<desc>made with tinkercad</desc>
<path d="M -17.53499984741211 -102.87699890136716 L -17.53499984741211 -100.37599945068357 L -22.53499984741211 -100.37599945068357 L -22.53499984741211 -98.30400085449216 L -22.53499984741211 -97.37400054931638 L -22.53499984741211 -94.8720016479492 L -20.985000610351562 -95.35800170898436 L -19.523000717163086 -96.06700134277341 L -18.180999755859375 -96.98200225830075 L -17.75627326965332 -97.37400054931638 L -17.53499984741211 -97.57822418212888 L -16.98699951171875 -98.08399963378903 L -16.80992317199707 -98.30400085449216 L -15.968000411987305 -99.34999847412107 L -15.144000053405762 -100.75099945068357 L -14.53499984741211 -102.25700378417966 L -14.644000053405762 -99.75900268554685 L -14.855048179626465 -98.30400085449216 L -15.003000259399414 -97.28399658203122 L -15.609000205993652 -94.85800170898436 L -16.45599937438965 -92.50499725341795 L -17.53499984741211 -90.24900054931639 L -17.53499984741211 -89.50749206542967 L -17.53499984741211 -87.14764404296874 L -17.53499984741211 -79.82801055908202 L -17.53499984741211 -65.53600311279295 L -17.53499984741211 -27.89599990844726 L -17.53499984741211 -22.892999649047848 L -20.53499984741211 -22.892999649047848 L -20.53499984741211 -19.89100074768066 L -17.53499984741211 -19.89100074768066 L -17.53499984741211 1.1102230246251565e-16 L -17.53499984741211 44.46400070190429 L -18.333608627319336 44.46400070190429 L -18.334304809570312 44.46400070190429 L -20.53499984741211 44.46400070190429 L -20.53499984741211 47.46599960327148 L -17.53499984741211 47.46599960327148 L -16.405000686645508 51.710014343261705 L -13.805000305175781 61.47499847412108 L -16.405000686645508 61.47499847412108 L -16.405000686645508 64.47699737548827 L -13.005695343017578 64.47699737548827 L -13.005000114440918 64.47699737548827 L -12.72303295135498 65.53600311279295 L -9.274999618530273 78.48600006103514 L -8.602999687194824 80.48699951171874 L -7.906885147094727 81.9199981689453 L -7.681000232696533 82.38500213623045 L -6.525000095367432 84.15000152587889 L -5.1539998054504395 85.75399780273436 L -3.5899999141693115 87.1689987182617 L -1.8580000400543213 88.37400054931639 L -0.3303864300251007 89.16799926757811 L 0 89.33972167968749 L 0.014000000432133675 89.3470001220703 L 1.99399995803833 90.07399749755858 L 4.050000190734863 90.54299926757811 L 6.150000095367432 90.74500274658202 L 8.258000373840332 90.67800140380858 L 10.34000015258789 90.34200286865233 L 12.362000465393066 89.74400329589842 L 14.291999816894531 88.89199829101561 L 16.097999572753906 87.80100250244139 L 16.384000778198242 87.57372283935545 L 17.749000549316406 86.48899841308592 L 19.22100067138672 84.97699737548827 L 20.48699951171875 83.28900146484374 L 21.26363754272461 81.9199981689453 L 21.527999877929688 81.45400238037108 L 22.32699966430664 79.49999999999999 L 22.8700008392334 77.46099853515624 L 29.53499984741211 77.46099853515624 L 29.53499984741211 81.9199981689453 L 29.53499984741211 89.16799926757811 L 29.53499984741211 98.30400085449216 L 29.53499984741211 99.57499694824216 L 29.53499984741211 101.07599639892575 L 29.53499984741211 102.87699890136716 L 0 102.87699890136716 L -5.118000030517578 102.87699890136716 L -18.725000381469727 102.87699890136716 L -18.725000381469727 99.57499694824216 L -18.725000381469727 98.30400085449216 L -18.725000381469727 96.77300262451169 L -22.53499984741211 96.77300262451169 L -22.53499984741211 93.5960006713867 L -18.725000381469727 93.5960006713867 L -18.725000381469727 89.16799926757811 L -18.725000381469727 87.4919967651367 L -22.53499984741211 87.4919967651367 L -23.50946617126465 81.9199981689453 L -26.37480354309082 65.53600311279295 L -26.560009002685547 64.47699737548827 L -29.53499984741211 47.46599960327148 L -29.53499984741211 42.463001251220696 L -25.53499984741211 42.463001251220696 L -25.53499984741211 39.46099853515624 L -29.53499984741211 39.46099853515624 L -29.53499984741211 2.3968310356140132 L -29.53499984741211 2.394219875335693 L -29.53499984741211 1.1102230246251565e-16 L -29.53499984741211 -24.893999099731438 L -25.53499984741211 -24.893999099731438 L -25.53499984741211 -27.89599990844726 L -29.53499984741211 -27.89599990844726 L -29.53499984741211 -65.53600311279295 L -29.53499984741211 -86.50284576416014 L -29.53499984741211 -89.24063873291014 L -29.53499984741211 -91.21166229248045 L -29.53499984741211 -92.67716217041014 L -29.53499984741211 -97.37400054931638 L -25.53499984741211 -97.37400054931638 L -25.53499984741211 -98.30400085449216 L -25.53499984741211 -100.37599945068357 L -29.53499984741211 -100.37599945068357 L -29.53499984741211 -102.87699890136716 L -22.53499984741211 -102.87699890136716 L -17.53499984741211 -102.87699890136716 M 1.4789999723434448 97.67400360107419 L 1.4789999723434448 98.30400085449216 L 1.4789999723434448 99.57499694824216 L 1.4789999723434448 101.07599639892575 L 11.878999710083008 101.07599639892575 L 11.878999710083008 99.57499694824216 L 11.878999710083008 98.30400085449216 L 11.878999710083008 97.67400360107419 L 1.4789999723434448 97.67400360107419 M 18.475000381469727 89.16799926757811 L 18.475000381469727 98.30400085449216 L 18.475000381469727 99.57499694824216 L 21.875 99.57499694824216 L 21.875 98.30400085449216 L 21.875 89.16799926757811 L 18.475000381469727 89.16799926757811 M -8.517999649047852 98.30400085449216 L -8.517999649047852 99.57499694824216 L -5.118000030517578 99.57499694824216 L -5.118000030517578 98.30400085449216 L -5.118000030517578 96.77300262451169 L -5.118000030517578 93.5960006713867 L -5.118000030517578 89.16799926757811 L -8.517999649047852 89.16799926757811 L -8.517999649047852 93.5960006713867 L -8.517999649047852 96.77300262451169 L -8.517999649047852 98.30400085449216 z" fill="none" stroke="rgb(255,0,0)" stroke-width="0.001mm" />
</svg>