<?xml version="1.0" standalone="no"?>
<!DOCTYPE svg PUBLIC "-//W3C//DTD SVG 1.1//EN"
  "http://www.w3.org/Graphics/SVG/1.1/DTD/svg11.dtd">
<svg width="128.93000030517578mm" height="128.96600341796872mm" viewBox="-63.99416732788086 -74.96600341796874 128.93000030517578 128.96600341796872" xmlns="http://www.w3.org/2000/svg" version="1.1">
	<title>svgOutput</title>
	<desc>made with tinkercad</desc>
<path d="M 30.73183250427246 -66.31866455078124 L 32.039608001708984 -65.53600311279295 L 32.768001556396484 -65.10007476806639 L 35.41416549682617 -63.516418457031236 L 35.827415466308594 -63.24200057983397 L 40.22650146484375 -60.01441574096678 L 40.61225128173828 -59.70249938964842 L 44.69049835205078 -56.07708358764647 L 45.04533386230469 -55.73049926757811 L 48.766082763671875 -51.73841476440428 L 49.086917877197266 -51.36008453369139 L 50.787925720214844 -49.15200042724608 L 52.41716766357422 -47.03708267211913 L 52.701168060302734 -46.63033294677734 L 55.6115837097168 -42.01491546630859 L 55.85625076293945 -41.583415985107415 L 58.32208251953125 -36.71591567993163 L 58.525333404541016 -36.26333236694335 L 59.901634216308594 -32.76800155639648 L 60.52458190917969 -31.18591690063476 L 60.68450164794922 -30.71633338928222 L 62.19974899291992 -25.473917007446282 L 62.314918518066406 -24.991416931152337 L 63.33241653442383 -19.630750656127926 L 63.402000427246094 -19.13958358764648 L 63.66096115112305 -16.38400077819824 L 63.91258239746094 -13.706500053405758 L 63.93583297729492 -13.21100044250488 L 63.93583297729492 -7.755000114440916 L 63.91258239746094 -7.259500026702879 L 63.402000427246094 -1.8264166116714473 L 63.33241653442383 -1.3352500200271602 L 63.078975677490234 1.1102230246251565e-16 L 62.314918518066406 4.0254168510437 L 62.19974899291992 4.507916450500487 L 61.13491439819336 8.19200038909912 L 60.68450164794922 9.75033378601074 L 60.52458190917969 10.219916343688963 L 58.525333404541016 15.297333717346188 L 58.32208251953125 15.749917030334469 L 58.00086212158203 16.38400077819824 L 57.34400177001953 17.68063163757324 L 55.925865173339844 20.479999542236325 L 55.85625076293945 20.617416381835934 L 55.6115837097168 21.048915863037106 L 53.387454986572266 24.57600021362304 L 52.701168060302734 25.664333343505852 L 52.41716766357422 26.07108306884765 L 49.152000427246094 30.309598922729485 L 49.086917877197266 30.394083023071282 L 48.766082763671875 30.772417068481438 L 46.90613555908203 32.76800155639648 L 45.04533386230469 34.76449966430663 L 44.69049835205078 35.11108398437499 L 40.61225128173828 38.736499786376946 L 40.22650146484375 39.048416137695305 L 35.827415466308594 42.27600097656249 L 35.41416549682617 42.55041503906249 L 32.768001556396484 44.134075164794915 L 30.73183250427246 45.35266494750976 L 30.294666290283203 45.58708190917968 L 25.370332717895508 47.9383316040039 L 24.913166046142578 48.13091659545897 L 19.7899169921875 50.01008224487303 L 19.316667556762695 50.15891647338866 L 16.384000778198242 50.93284225463866 L 14.04033374786377 51.5513343811035 L 13.55525016784668 51.65525054931639 L 8.17258358001709 52.54624938964842 L 7.679999828338623 52.60425186157225 L 2.236833333969116 52.988334655761705 L 1.7408332824707031 52.999999999999986 L 0 52.95905303955077 L -3.7151665687561035 52.87166595458983 L -4.210000038146973 52.836750030517564 L -9.628417015075684 52.198749542236314 L -10.11775016784668 52.11774826049803 L -15.453666687011719 50.97466659545897 L -15.933333396911621 50.848083496093736 L -16.384000778198242 50.706352233886705 L -21.139083862304688 49.21091842651366 L -21.299711227416992 49.15200042724608 L -21.604833602905273 49.04008483886717 L -24.576000213623047 47.788467407226555 L -26.6336669921875 46.92166519165038 L -27.08133316040039 46.70791625976562 L -30.16201400756836 45.05599975585937 L -31.890167236328125 44.12933349609374 L -32.315834045410156 43.87458419799804 L -32.768001556396484 43.57432556152343 L -36.8615837097168 40.855998992919915 L -37.26150131225586 40.56258392333984 L -41.5047492980957 37.13150024414062 L -41.8754997253418 36.80191802978515 L -45.77866744995117 32.98949813842773 L -45.985111236572266 32.76800155639648 L -46.11691665649414 32.62658309936523 L -49.64608383178711 28.46491622924804 L -49.94883346557617 28.071916580200188 L -53.07283401489258 23.59766578674316 L -53.33741760253906 23.1780834197998 L -56.028751373291016 18.431583404541012 L -56.2529182434082 17.98908424377441 L -56.97373962402344 16.38400077819824 L -58.48866653442383 13.010666847229 L -58.67041778564453 12.549083709716793 L -60.429500579833984 7.38366651535034 L -60.5672492980957 6.907083511352537 L -61.834083557128906 1.5995833873748775 L -61.92658233642578 1.1122499704360962 L -62.08415603637695 1.1102230246251565e-16 L -62.69200134277344 -4.290583133697509 L -62.7384147644043 -4.784500122070312 L -62.99416732788086 -10.234999656677244 L -62.99416732788086 -10.730999946594237 L -62.7384147644043 -16.18149948120117 L -62.71938705444336 -16.38400077819824 L -62.69200134277344 -16.67541694641113 L -61.92658233642578 -22.078250885009762 L -61.834083557128906 -22.565584182739254 L -60.5672492980957 -27.873083114624016 L -60.429500579833984 -28.349666595458977 L -58.924835205078125 -32.76800155639648 L -58.67041778564453 -33.515083312988274 L -58.48866653442383 -33.976665496826165 L -57.34400177001953 -36.52553176879882 L -57.19199752807617 -36.86399841308593 L -56.2529182434082 -38.95508193969726 L -56.028751373291016 -39.39758300781249 L -55.14283752441406 -40.95999908447265 L -53.33741760253906 -44.144084930419915 L -53.07283401489258 -44.563667297363274 L -49.94883346557617 -49.0379180908203 L -49.86094665527344 -49.15200042724608 L -49.64608383178711 -49.43091583251952 L -46.11691665649414 -53.592582702636705 L -45.77866744995117 -53.95550155639647 L -41.8754997253418 -57.767917633056626 L -41.5047492980957 -58.097499847412095 L -37.26150131225586 -61.528583526611314 L -36.8615837097168 -61.82199859619139 L -32.768001556396484 -64.54032135009764 L -32.315834045410156 -64.84058380126952 L -31.890167236328125 -65.09533691406249 L -31.068361282348633 -65.53600311279295 L -27.08133316040039 -67.67391967773436 L -26.6336669921875 -67.88766479492186 L -21.604833602905273 -70.00608062744139 L -21.139083862304688 -70.17691802978514 L -15.933333396911621 -71.81408691406249 L -15.453666687011719 -71.94066619873045 L -10.11775016784668 -73.08374786376952 L -9.628417015075684 -73.1647491455078 L -4.210000038146973 -73.80274963378905 L -3.7151665687561035 -73.83766937255858 L 0 -73.92505645751952 L 1.7408332824707031 -73.96600341796874 L 2.236833333969116 -73.95433044433592 L 7.679999828338623 -73.57025146484374 L 8.17258358001709 -73.51225280761717 L 13.55525016784668 -72.62124633789061 L 14.04033374786377 -72.51733398437499 L 19.316667556762695 -71.12491607666014 L 19.7899169921875 -70.97608184814452 L 24.913166046142578 -69.09691619873045 L 25.370332717895508 -68.90433502197264 L 30.294666290283203 -66.55308532714842 L 30.73183250427246 -66.31866455078124 M 24.141000747680664 -60.02500152587889 L 24.576000213623047 -59.42634201049803 L 24.856000900268555 -59.04100036621092 L 25.90999984741211 -58.43299865722655 L 27.118999481201172 -58.30599975585936 L 28.275999069213867 -58.681999206542955 L 28.672000885009766 -59.038574218749986 L 29.18000030517578 -59.495998382568345 L 29.674999237060547 -60.6069984436035 L 29.674999237060547 -61.43999862670897 L 29.674999237060547 -61.82300186157225 L 29.18000030517578 -62.93399810791014 L 28.672000885009766 -63.39142608642577 L 28.275999069213867 -63.7480010986328 L 27.118999481201172 -64.12400054931639 L 25.90999984741211 -63.997001647949205 L 24.856000900268555 -63.38899993896483 L 24.576000213623047 -63.00365829467772 L 24.141000747680664 -62.40499877929686 L 23.888999938964844 -61.215000152587876 L 24.141000747680664 -60.02500152587889 M 14.298666954040527 -56.937831878662095 L 13.468999862670898 -57.216667175292955 L 9.194833755493164 -58.15750122070311 L 8.33983325958252 -58.34500122070311 L 3.989833354949951 -58.818332672119126 L 3.119666576385498 -58.91233444213866 L 0 -58.91233444213866 L -1.2569999694824219 -58.91233444213866 L -2.132166624069214 -58.91166687011717 L -6.482166767120361 -58.43833160400389 L -7.352166652679443 -58.34299850463866 L -11.626333236694336 -57.40216827392577 L -12.480999946594238 -57.2133331298828 L -16.62849998474121 -55.81583404541014 L -17.457834243774414 -55.53566741943358 L -21.429500579833984 -53.69816589355467 L -22.223499298095703 -53.330165863037095 L -25.973499298095703 -51.074333190917955 L -26.723167419433594 -50.622501373291 L -28.657304763793945 -49.15200042724608 L -30.206499099731445 -47.97416687011718 L -30.902833938598633 -47.44400024414062 L -32.768001556396484 -45.67715454101562 L -34.0803337097168 -44.43399810791015 L -34.71533203125 -43.83150100708007 L -37.15488815307617 -40.95999908447265 L -37.548667907714844 -40.49649810791015 L -38.11466598510742 -39.82899856567382 L -40.570499420166016 -36.20650100708007 L -40.959999084472656 -35.63111495971679 L -41.06116485595703 -35.4816665649414 L -42.499603271484375 -32.76800155639648 L -43.11033248901367 -31.615833282470696 L -43.5196647644043 -30.842332839965813 L -45.13966751098633 -26.77650070190429 L -45.4630012512207 -25.96316719055175 L -46.63383483886719 -21.746500015258786 L -46.867332458496094 -20.90283393859863 L -47.57566833496094 -16.584499359130856 L -47.608394622802734 -16.38400077819824 L -47.71666717529297 -15.720666885375973 L -47.95333480834961 -11.350666999816893 L -48 -10.476666450500487 L -47.76333236694336 -6.1066665649414045 L -47.71533203125 -5.232833385467528 L -47.00699996948242 -0.914499998092651 L -46.86466598510742 -0.05083333328366267 L -46.85055160522461 1.1102230246251565e-16 L -45.69383239746094 4.1658334732055655 L -45.45899963378906 5.008999824523925 L -43.8390007019043 9.074832916259764 L -43.51449966430664 9.887666702270506 L -41.46533203125 13.753499984741207 L -41.05466842651367 14.526499748229977 L -39.79539489746094 16.38400077819824 L -38.59883499145508 18.149000167846676 L -38.1071662902832 18.872999191284176 L -35.273834228515625 22.208000183105465 L -34.7066650390625 22.874666213989254 L -32.768001556396484 24.711137771606438 L -31.52916717529297 25.884666442871087 L -30.893333435058594 26.48600006103515 L -27.40999984741211 29.134332656860344 L -26.71266746520996 29.663499832153313 L -22.96266746520996 31.919332504272454 L -22.212499618530273 32.36999893188476 L -21.35224151611328 32.76800155639648 L -18.240833282470703 34.207500457763665 L -17.4461669921875 34.57433319091796 L -16.384000778198242 34.932231903076165 L -13.298666954040527 35.97183227539062 L -12.468999862670898 36.25066757202148 L -8.194833755493164 37.19150161743163 L -7.3398332595825195 37.37900161743163 L -2.989833354949951 37.85233306884765 L -2.119666576385498 37.94633483886718 L 0 37.94633483886718 L 2.256999969482422 37.94633483886718 L 3.132166624069214 37.945667266845696 L 7.482166767120361 37.472332000732415 L 8.352167129516602 37.37699890136718 L 12.626333236694336 36.436164855957024 L 13.480999946594238 36.24733352661132 L 16.384000778198242 35.26916885375976 L 17.62849998474121 34.849834442138665 L 18.457834243774414 34.5696678161621 L 22.352048873901367 32.76800155639648 L 22.429500579833984 32.732166290283196 L 23.223499298095703 32.36416625976562 L 26.973499298095703 30.108333587646477 L 27.723167419433594 29.65649986267089 L 31.206499099731445 27.008167266845696 L 31.902833938598633 26.478000640869134 L 32.768001556396484 25.65843963623046 L 33.910675048828125 24.57600021362304 L 35.0803337097168 23.4680004119873 L 35.71533203125 22.865499496459957 L 36.86399841308594 21.513452529907223 L 37.74199676513672 20.479999542236325 L 38.548667907714844 19.5305004119873 L 39.11466598510742 18.863000869750973 L 40.7952766418457 16.38400077819824 L 41.570499420166016 15.240500450134274 L 42.06116485595703 14.515666961669918 L 44.11033248901367 10.649833679199217 L 44.5196647644043 9.876333236694334 L 46.13966751098633 5.810500144958495 L 46.4630012512207 4.997166633605956 L 47.63383483886719 0.7804999947547911 L 47.849849700927734 1.1102230246251565e-16 L 47.867332458496094 -0.06316666305065143 L 48.57566833496094 -4.381499767303466 L 48.71666717529297 -5.245333194732665 L 48.95333480834961 -9.615333557128904 L 49 -10.489333152770994 L 48.76333236694336 -14.859333038330075 L 48.71533203125 -15.73316669464111 L 48.608577728271484 -16.38400077819824 L 48.00699996948242 -20.051500320434567 L 47.86466598510742 -20.915166854858395 L 46.69383239746094 -25.13183403015136 L 46.45899963378906 -25.97500038146972 L 44.8390007019043 -30.040832519531243 L 44.51449966430664 -30.853666305541985 L 43.4997673034668 -32.76800155639648 L 42.46533203125 -34.71950149536132 L 42.05466842651367 -35.492500305175774 L 39.59883499145508 -39.11500167846679 L 39.1071662902832 -39.83900070190429 L 36.273834228515625 -43.173999786376946 L 35.7066650390625 -43.84066772460937 L 32.768001556396484 -46.62442398071288 L 32.52916717529297 -46.85066604614257 L 31.893333435058594 -47.45199966430663 L 29.65733528137207 -49.15200042724608 L 28.40999984741211 -50.100334167480455 L 27.71266746520996 -50.62950134277342 L 23.96266746520996 -52.885334014892564 L 23.212499618530273 -53.335998535156236 L 19.240833282470703 -55.17350006103514 L 18.4461669921875 -55.54033279418944 L 16.384000778198242 -56.23517990112303 L 14.298666954040527 -56.937831878662095 M 53.597999572753906 14.111000061035153 L 53.24800109863281 13.795845031738278 L 52.694000244140625 13.296999931335446 L 51.53799819946289 12.921999931335446 L 50.327999114990234 13.04899978637695 L 49.275001525878906 13.656999588012692 L 49.152000427246094 13.826275825500485 L 48.560001373291016 14.640999794006344 L 48.30699920654297 15.831000328063961 L 48.4246711730957 16.38400077819824 L 48.560001373291016 17.02000045776367 L 49.152000427246094 17.834724426269528 L 49.275001525878906 18.003999710083004 L 50.327999114990234 18.611999511718746 L 51.53799819946289 18.73999977111816 L 52.694000244140625 18.364000320434567 L 53.24800109863281 17.86515426635742 L 53.597999572753906 17.549999237060543 L 54.09299850463867 16.438999176025387 L 54.09299850463867 16.38400077819824 L 54.09299850463867 15.222000122070309 L 53.597999572753906 14.111000061035153 M -48.76900100708008 -39.33000183105468 L -49.152000427246094 -39.45446777343749 L -49.92599868774414 -39.706001281738274 L -51.13600158691406 -39.57799911499023 L -52.18899917602539 -38.97000122070312 L -52.90399932861328 -37.98600006103515 L -53.14274215698242 -36.86399841308593 L -53.15700149536133 -36.79700088500976 L -52.90399932861328 -35.60699844360351 L -52.18899917602539 -34.623001098632805 L -51.13600158691406 -34.01499938964843 L -49.92599868774414 -33.88800048828124 L -49.152000427246094 -34.138862609863274 L -48.76900100708008 -34.26300048828124 L -47.8650016784668 -35.07699966430663 L -47.37099838256836 -36.18799972534179 L -47.37099838256836 -36.86399841308593 L -47.37099838256836 -37.40499877929687 L -47.8650016784668 -38.515998840332024 L -48.76900100708008 -39.33000183105468 M -28.58783721923828 40.95999908447265 L -28.532608032226562 41.21977233886718 L -28.486000061035156 41.43899917602538 L -27.770999908447266 42.42300033569335 L -27.710725784301758 42.45776748657226 L -26.716999053955078 43.03099822998046 L -26.318078994750977 43.07290649414062 L -25.507999420166016 43.158000946044915 L -24.576000213623047 42.85512161254882 L -24.35099983215332 42.78200149536132 L -23.44700050354004 41.967998504638665 L -22.99789047241211 40.95999908447265 L -22.95199966430664 40.85699844360351 L -22.95199966430664 39.640998840332024 L -23.44700050354004 38.52999877929687 L -24.35099983215332 37.71599960327148 L -24.576000213623047 37.64287948608398 L -25.507999420166016 37.34000015258788 L -26.716999053955078 37.46699905395507 L -27.770999908447266 38.075000762939446 L -28.486000061035156 39.05899810791015 L -28.672000885009766 39.93386077880859 L -28.73900032043457 40.2490005493164 L -28.672000885009766 40.564136505126946 L -28.58783721923828 40.95999908447265 z" fill="none" stroke="rgb(255,0,0)" stroke-width="0.001mm" />
</svg>