<?xml version="1.0" encoding="UTF-8" standalone="no"?>
<svg
   xmlns:dc="http://purl.org/dc/elements/1.1/"
   xmlns:cc="http://creativecommons.org/ns#"
   xmlns:rdf="http://www.w3.org/1999/02/22-rdf-syntax-ns#"
   xmlns:svg="http://www.w3.org/2000/svg"
   xmlns="http://www.w3.org/2000/svg"
   xmlns:sodipodi="http://sodipodi.sourceforge.net/DTD/sodipodi-0.dtd"
   xmlns:inkscape="http://www.inkscape.org/namespaces/inkscape"
   width="99.0199966430664mm"
   height="83.27200317382811mm"
   viewBox="-49.5099983215332 -41.636001586914055 99.0199966430664 83.27200317382811"
   version="1.1"
   id="svg8"
   sodipodi:docname="base_tower_motor_holder_upper.svg"
   inkscape:version="0.92.4 (5da689c313, 2019-01-14)">
  <metadata
     id="metadata14">
    <rdf:RDF>
      <cc:Work
         rdf:about="">
        <dc:format>image/svg+xml</dc:format>
        <dc:type
           rdf:resource="http://purl.org/dc/dcmitype/StillImage" />
      </cc:Work>
    </rdf:RDF>
  </metadata>
  <defs
     id="defs12" />
  <sodipodi:namedview
     pagecolor="#ffffff"
     bordercolor="#666666"
     borderopacity="1"
     objecttolerance="10"
     gridtolerance="10"
     guidetolerance="10"
     inkscape:pageopacity="0"
     inkscape:pageshadow="2"
     inkscape:window-width="2560"
     inkscape:window-height="1299"
     id="namedview10"
     showgrid="false"
     inkscape:zoom="2.9994075"
     inkscape:cx="191.46625"
     inkscape:cy="130.32964"
     inkscape:window-x="-13"
     inkscape:window-y="-13"
     inkscape:window-maximized="1"
     inkscape:current-layer="svg8" />
  <title
     id="title2">svgOutput</title>
  <desc
     id="desc4">made with tinkercad</desc>
  <path
     d="m 34.238998,-34.563999 2.309899,1.795997 0.315101,0.245003 2.41,2.290999 2.171002,2.519001 1.910999,2.720998 1.632,2.897002 1.338001,3.043998 0.867913,2.667 0.05532,0.170004 0.105763,0.324997 0.247215,1.129335 0.303024,1.384274 0.160763,0.734391 0.09998,0.853322 0.215573,1.8398812 0.07144,0.6097965 0.01965,1.1459999 L 48.509998,-6.013 48.237999,-2.6989999 47.743748,0 47.639,0.57200003 46.719002,3.767 45.487999,6.8559999 43.956001,9.8079996 42.139999,12.593 l -2.082,2.592 -2.329998,2.373001 -2.552002,2.130998 -2.407997,1.633625 L 32.424,21.556 29.502001,23.142 26.437,24.431 l -3.177999,0.979 -1.021279,0.310055 -5.853721,1.777082 -0.494792,0.150209 -2.914893,0.884907 -2.650969,0.804785 L 7.7736669,30.111074 4.8221626,31.007095 1.0569345,32.15015 0.27088889,32.388779 0,32.47102 -0.97820503,32.768002 -1.4940555,32.92461 -26.893,40.636002 -29.906,37.813 l -2.824,-3.014 -0.038,-0.04623 -2.583999,-3.14377 -2.378311,-3.311273 -0.03069,-0.04273 -1.634636,-2.619459 -0.551361,-0.883539 -1.954002,-3.639 -1.712997,-3.757 L -45.078999,13.495 -32.768002,11.184343 -31.951,11.031 l 0.528999,2.847 5.596951,-1.039107 0.67855,-0.125977 0.5705,-0.10592 0.682667,-0.126746 7.509332,-1.394271 4.087978,-0.75902 3.7568565,-0.6975425 0.3471661,-0.06446 0.3660002,-0.067957 L -8.0682459,8.1920004 -8.1920004,7.5253248 -9.5889177,0 -11.109591,-8.1920004 -12.630263,-16.384001 -13.047,-18.629 l -3.337001,0.61957 -8.754535,1.625429 -7.629466,1.416541 -3.875,0.71946 2.502003,13.47999999 L -38.233227,0 -47.882999,1.811 -48.076931,0 l -0.267071,-2.494 -0.165996,-4.3249998 0.128997,-4.3280002 0.09217,-0.938754 0.330826,-3.369246 0.715,-4.27 1.005001,-4.211001 13.469997,-2.527744 16.384001,-3.074581 7.8530009,-1.473673 1.9720254,-1.756003 L -6.0479999,-33.223 -3.358,-35.178001 -0.48800001,-36.855999 0,-37.079903 2.5350001,-38.243 l 3.1449997,-1.080002 3.2360006,-0.762997 3.2959996,-0.439003 3.323,-0.111 3.318001,0.219002 3.278999,0.547001 3.209999,0.868 3.108002,1.181999 2.974998,1.484001 1.343003,0.845696 1.470996,0.926304 M 21.292,-19.472 19.278999,-20.306 17.16,-20.815001 16.384001,-20.876095 14.988,-20.986 12.815,-20.815001 10.696,-20.306 8.6829996,-19.472 8.1920004,-19.171005 6.8249998,-18.333 5.1680002,-16.917999 4.7119889,-16.384001 3.753,-15.261 2.6140001,-13.402 1.78,-11.389 1.271,-9.2700005 1.1861689,-8.1920004 1.1,-7.0970001 1.271,-4.9250002 1.78,-2.806 2.6140001,-0.792 3.0995157,0 3.753,1.066 5.1680002,2.723 6.8249998,4.1389999 8.1920004,4.9762692 8.6829996,5.277 10.696,6.1110001 l 2.119,0.5089998 2.173,0.171 L 16.384001,6.6810937 17.16,6.6199999 19.278999,6.1110001 21.292,5.277 23.15,4.1389999 24.576,2.9204025 24.806999,2.723 26.222,1.066 26.875484,0 27.361,-0.792 28.195,-2.806 28.704,-4.9250002 28.875,-7.0970001 28.788832,-8.1920004 28.704,-9.2700005 28.195,-11.389 27.361,-13.402 26.222,-15.261 25.26301,-16.384001 24.806999,-16.917999 24.576,-17.115263 23.15,-18.333 21.292,-19.472 m -28.7879998,21.7859999 0.1659999,0.674 0.46,0.5190001 0.6489997,0.2469999 0.6890001,-0.084 L -4.961,3.276 -4.638,2.661 V 1.967 L -4.961,1.352 -5.5320001,0.958 -6.2210002,0.875 -6.8699999,1.1210001 -7.3299999,1.64 -7.4959998,2.3139999 M -16.226,12.727 l -0.158001,0.259698 -0.465,0.764302 -0.02988,0.106741 -0.293125,1.047259 v 0.829211 0.36879 l 0.07865,0.281 0.244348,0.872999 0.465,0.764301 0.158001,0.259699 0.875,0.818001 1.064,0.550999 1.173,0.243999 1.196,-0.082 1.129,-0.401001 0.9789996,-0.691 0.7560005,-0.929998 0.4770002,-1.099001 0.042416,-0.306999 0.1215839,-0.880001 -0.1639996,-1.187 -0.4770002,-1.1 -0.7560005,-0.929 -0.9789996,-0.691 -1.129,-0.401 -1.196,-0.082 -1.173,0.244 -1.064,0.551 -0.875,0.818 m -12.455,3.221 -0.122034,0.436001 -0.200966,0.717998 v 1.198 l 0.323,1.154001 0.622999,1.024001 0.876002,0.817999 1.063,0.551 1.173999,0.244 0.369,-0.02532 0.826,-0.05668 1.129,-0.401001 0.979,-0.691 0.756,-0.93 0.477999,-1.099 0.163,-1.187 -0.163,-1.187 -0.05649,-0.129999 L -20.886,15.414 l -0.756,-0.929 -0.979,-0.691 -1.129,-0.402 -0.826,-0.05599 -0.369,-0.02501 -1.173999,0.244 -1.063,0.551 -0.876002,0.818 -0.622999,1.024 m 24.2279999,3.092001 0.1659999,0.674 0.4600003,0.519998 L -3.178,20.48 -2.4890001,20.396 -1.918,20.002001 -1.595,19.388 V 18.693001 L -1.918,18.079 -2.4890001,17.684999 -3.178,17.601 l -0.6489999,0.246 -0.4600003,0.520001 -0.1659999,0.673 M -32.673,23.077 l -0.095,0.03615 -0.553997,0.210844 -0.460002,0.519001 -0.166001,0.674 0.166001,0.674 0.460002,0.518999 0.553997,0.210846 0.095,0.03616 0.689001,-0.084 L -31.413,25.479 -31.09,24.864 V 24.576 24.17 l -0.323,-0.615 -0.570999,-0.394001 -0.689001,-0.084"
     id="path6"
     style="fill:none;stroke:#ff0000;stroke-width:0.08307917;stroke-miterlimit:4;stroke-dasharray:none"
     inkscape:connector-curvature="0"
     sodipodi:nodetypes="ccccccccccccccccccccccccccccccccccccccccccccccccccccccccccccccccccccccccccccccccccccccccccccccccccccccccccccccccccccccccccccccccccccccccccccccccccccccccccccccccccccccccccccccccccccccccccccccccccccccccccccccccccccccccccccccccccccccccccccccccccccccccccccccccccccccccccc" />
  <circle
     style="opacity:1;fill:none;fill-opacity:1;stroke:#ff0000;stroke-width:0.02645833;stroke-linecap:round;stroke-miterlimit:4;stroke-dasharray:none;stroke-opacity:1"
     id="path821-0"
     cx="-3.2899673"
     cy="-27.662857"
     r="1.6759845" />
  <circle
     style="opacity:1;fill:none;fill-opacity:1;stroke:#ff0000;stroke-width:0.02645833;stroke-linecap:round;stroke-miterlimit:4;stroke-dasharray:none;stroke-opacity:1"
     id="path821-0-2"
     cx="41.93206"
     cy="-12.63043"
     r="1.6759845" />
  <circle
     style="opacity:1;fill:none;fill-opacity:1;stroke:#ff0000;stroke-width:0.02645833;stroke-linecap:round;stroke-miterlimit:4;stroke-dasharray:none;stroke-opacity:1"
     id="path821-0-6"
     cx="6.3158154"
     cy="18.962614"
     r="1.6759845" />
  <circle
     style="opacity:1;fill:none;fill-opacity:1;stroke:#ff0000;stroke-width:0.02645833;stroke-linecap:round;stroke-miterlimit:4;stroke-dasharray:none;stroke-opacity:1"
     id="path821-0-0"
     cx="-8.2799845"
     cy="26.416452"
     r="1.6759845" />
  <circle
     style="opacity:1;fill:none;fill-opacity:1;stroke:#ff0000;stroke-width:0.02645833;stroke-linecap:round;stroke-miterlimit:4;stroke-dasharray:none;stroke-opacity:1"
     id="path821-0-8"
     cx="-24.965353"
     cy="29.535212"
     r="1.6759845" />
</svg>
