<?xml version="1.0" encoding="UTF-8" standalone="no"?>
<svg
   xmlns:dc="http://purl.org/dc/elements/1.1/"
   xmlns:cc="http://creativecommons.org/ns#"
   xmlns:rdf="http://www.w3.org/1999/02/22-rdf-syntax-ns#"
   xmlns:svg="http://www.w3.org/2000/svg"
   xmlns="http://www.w3.org/2000/svg"
   xmlns:sodipodi="http://sodipodi.sourceforge.net/DTD/sodipodi-0.dtd"
   xmlns:inkscape="http://www.inkscape.org/namespaces/inkscape"
   width="128.92999649047852mm"
   height="128.96600341796872mm"
   viewBox="-63.9474983215332 -74.96600341796874 128.92999649047852 128.96600341796872"
   version="1.1"
   id="svg8"
   sodipodi:docname="base_tower_bottom_upper.svg"
   inkscape:version="0.92.4 (5da689c313, 2019-01-14)">
  <metadata
     id="metadata14">
    <rdf:RDF>
      <cc:Work
         rdf:about="">
        <dc:format>image/svg+xml</dc:format>
        <dc:type
           rdf:resource="http://purl.org/dc/dcmitype/StillImage" />
      </cc:Work>
    </rdf:RDF>
  </metadata>
  <defs
     id="defs12" />
  <sodipodi:namedview
     pagecolor="#ffffff"
     bordercolor="#666666"
     borderopacity="1"
     objecttolerance="10"
     gridtolerance="10"
     guidetolerance="10"
     inkscape:pageopacity="0"
     inkscape:pageshadow="2"
     inkscape:window-width="5120"
     inkscape:window-height="2739"
     id="namedview10"
     showgrid="false"
     inkscape:zoom="1.4142136"
     inkscape:cx="302.00461"
     inkscape:cy="-149.15918"
     inkscape:window-x="-13"
     inkscape:window-y="-13"
     inkscape:window-maximized="1"
     inkscape:current-layer="svg8" />
  <title
     id="title2">svgOutput</title>
  <desc
     id="desc4">made with tinkercad</desc>
  <path
     d="M 28.52400016784668 -67.44975280761717 L 32.09297561645508 -65.53600311279295 L 32.458499908447266 -65.33999633789061 L 32.768001556396484 -65.15476989746092 L 33.73550033569336 -64.57575225830077 L 37.454750061035156 -62.10599899291991 L 38.65449905395508 -61.22574996948241 L 42.126251220703125 -58.41849899291991 L 43.23849868774414 -57.429748535156236 L 46.43199920654297 -54.3105010986328 L 47.44675064086914 -53.22174835205077 L 50.334251403808594 -49.81674957275389 L 50.846343994140625 -49.15200042724608 L 51.24250030517578 -48.637748718261705 L 53.798500061035156 -44.97700119018554 L 54.59225082397461 -43.718250274658196 L 56.79425048828125 -39.83475112915038 L 57.46675109863281 -38.507251739501946 L 59.29600143432617 -34.43399810791015 L 59.841251373291016 -33.04925155639648 L 59.93703079223633 -32.76800155639648 L 61.28049850463867 -28.822999954223626 L 61.693748474121094 -27.393249511718743 L 62.73025131225586 -23.05075073242187 L 63.00775146484375 -21.588750839233395 L 63.63399887084961 -17.16824913024902 L 63.70770263671875 -16.38400077819824 L 63.773250579833984 -15.686499595642086 L 63.98249816894531 -11.227000236511229 L 63.98249816894531 -9.739000320434569 L 63.773250579833984 -5.279500007629394 L 63.63399887084961 -3.797749996185302 L 63.09597396850586 1.1102230246251565e-16 L 63.00775146484375 0.6227499842643738 L 62.73025131225586 2.0847499370574947 L 61.693748474121094 6.427249908447264 L 61.28049850463867 7.8569998741149885 L 61.16641616821289 8.19200038909912 L 59.841251373291016 12.083250045776364 L 59.29600143432617 13.468000411987301 L 57.98645782470703 16.38400077819824 L 57.46675109863281 17.541250228881832 L 57.34400177001953 17.783555984497067 L 56.79425048828125 18.86874961853027 L 55.88064956665039 20.479999542236325 L 54.59225082397461 22.752250671386715 L 53.798500061035156 24.010999679565423 L 53.40400695800781 24.57600021362304 L 51.24250030517578 27.671749114990227 L 50.334251403808594 28.850749969482415 L 49.152000427246094 30.24488449096679 L 47.44675064086914 32.25574874877929 L 46.96931838989258 32.76800155639648 L 46.43199920654297 33.34450149536132 L 43.23849868774414 36.46374893188476 L 42.126251220703125 37.45249938964843 L 38.65449905395508 40.25975036621093 L 37.454750061035156 41.13999938964843 L 33.73550033569336 43.609748840332024 L 32.768001556396484 44.18877410888671 L 32.458499908447266 44.3740005493164 L 28.52400016784668 46.48374938964843 L 27.180999755859375 47.12499999999999 L 23.066499710083008 48.858249664306626 L 21.66925048828125 49.37075042724608 L 17.40999984741211 50.71025085449217 L 16.384000778198242 50.981010437011705 L 15.970999717712402 51.090000152587876 L 11.605250358581543 52.02524948120116 L 10.137249946594238 52.268249511718736 L 5.703999996185303 52.790248870849595 L 4.2195000648498535 52.89500045776366 L 0 52.99424743652342 L -0.24449999630451202 52.999999999999986 L -1.7324999570846558 52.965000152587876 L -6.185999870300293 52.650749206542955 L -7.663750171661377 52.476749420166 L -12.067749977111816 51.74774932861327 L -13.52299976348877 51.436000823974595 L -16.384000778198242 50.6809844970703 L -17.84000015258789 50.29674911499022 L -19.259750366210938 49.85025024414061 L -21.16341781616211 49.15200042724608 L -23.451499938964844 48.31275177001952 L -24.576000213623047 47.83905029296874 L -24.822999954223633 47.735000610351555 L -28.851999282836914 45.81124877929687 L -30.16349983215332 45.10800170898437 L -30.25038719177246 45.05599975585937 L -32.768001556396484 43.54927825927734 L -33.99449920654297 42.81525039672851 L -35.234249114990234 41.99200057983398 L -38.833499908447266 39.35124969482421 L -39.99074935913086 38.41550064086913 L -43.32749938964844 35.44924926757812 L -44.391998291015625 34.409500122070305 L -45.921932220458984 32.76800155639648 L -47.436248779296875 31.143249511718743 L -48.39875030517578 30.008249282836907 L -51.12350082397461 26.47125053405761 L -51.97549819946289 25.250999450683587 L -54.35675048828125 21.474750518798825 L -55.09075164794922 20.180250167846676 L -57.01389694213867 16.38400077819824 L -57.10824966430664 16.19775009155273 L -57.71799850463867 14.840000152587887 L -59.3537483215332 10.685750007629393 L -59.833499908447266 9.277000427246092 L -61.07324981689453 4.987750053405761 L -61.41875076293945 3.540250062942504 L -62.090721130371094 1.1102230246251565e-16 L -62.251251220703125 -0.8457499742507931 L -62.459999084472656 -2.319250106811523 L -62.877750396728516 -6.764500141143797 L -62.9474983215332 -8.251000404357908 L -62.9474983215332 -12.715000152587887 L -62.877750396728516 -14.20149993896484 L -62.672645568847656 -16.38400077819824 L -62.459999084472656 -18.646749496459957 L -62.251251220703125 -20.120250701904293 L -61.41875076293945 -24.50625038146972 L -61.07324981689453 -25.953750610351555 L -59.833499908447266 -30.24300003051757 L -59.3537483215332 -31.651750564575188 L -58.914222717285156 -32.76800155639648 L -57.71799850463867 -35.80599975585937 L -57.34400177001953 -36.63879776000976 L -57.242862701416016 -36.86399841308593 L -57.10824966430664 -37.16374969482421 L -55.18510437011719 -40.95999908447265 L -55.09075164794922 -41.14625167846679 L -54.35675048828125 -42.440750122070305 L -51.97549819946289 -46.21699905395507 L -51.12350082397461 -47.43724822998046 L -49.80253219604492 -49.15200042724608 L -48.39875030517578 -50.97425079345702 L -47.436248779296875 -52.10924911499022 L -44.391998291015625 -55.37549972534178 L -43.32749938964844 -56.415248870849595 L -39.99074935913086 -59.38150024414061 L -38.833499908447266 -60.31724929809569 L -35.234249114990234 -62.958000183105455 L -33.99449920654297 -63.781249999999986 L -32.768001556396484 -64.51527404785155 L -31.062454223632812 -65.53600311279295 L -30.16349983215332 -66.07399749755858 L -28.851999282836914 -66.77725219726561 L -24.822999954223633 -68.70099639892577 L -23.451499938964844 -69.27874755859374 L -19.259750366210938 -70.81625366210936 L -17.84000015258789 -71.2627487182617 L -13.52299976348877 -72.40200042724608 L -12.067749977111816 -72.71375274658202 L -7.663750171661377 -73.44274902343749 L -6.185999870300293 -73.6167526245117 L -1.7324999570846558 -73.93099975585936 L -0.24449999630451202 -73.96600341796874 L 0 -73.96025085449217 L 4.2195000648498535 -73.86100006103514 L 5.703999996185303 -73.75624847412108 L 10.137249946594238 -73.23425292968749 L 11.605250358581543 -72.99124908447264 L 15.970999717712402 -72.05599975585936 L 17.40999984741211 -71.67624664306639 L 21.66925048828125 -70.3367462158203 L 23.066499710083008 -69.82424926757811 L 27.180999755859375 -68.09100341796874 L 28.52400016784668 -67.44975280761717 M 26.81399917602539 -62.91500091552733 L 25.964000701904297 -62.68700027465819 L 25.340999603271484 -62.06499862670897 L 25.174087524414062 -61.43999862670897 L 25.11400032043457 -61.215000152587876 L 25.340999603271484 -60.36500167846678 L 25.964000701904297 -59.743000030517564 L 26.624000549316406 -59.56596374511717 L 26.81399917602539 -59.51499938964842 L 27.663999557495117 -59.743000030517564 L 28.285999298095703 -60.36500167846678 L 28.513999938964844 -61.215000152587876 L 28.45364761352539 -61.43999862670897 L 28.285999298095703 -62.06499862670897 L 27.663999557495117 -62.68700027465819 L 26.81399917602539 -62.91500091552733 M 49.53200149536133 15.831000328063961 L 49.680335998535156 16.38400077819824 L 49.7599983215332 16.68099975585937 L 50.38199996948242 17.302999496459957 L 51.20000076293945 17.52241706848144 L 51.231998443603516 17.531000137329098 L 52.082000732421875 17.302999496459957 L 52.70399856567383 16.68099975585937 L 52.78366470336914 16.38400077819824 L 52.93199920654297 15.831000328063961 L 52.70399856567383 14.980999946594235 L 52.082000732421875 14.357999801635739 L 51.9996223449707 14.33600044250488 L 51.231998443603516 14.130999565124508 L 50.464378356933594 14.33600044250488 L 50.38199996948242 14.357999801635739 L 49.7599983215332 14.980999946594235 L 49.53200149536133 15.831000328063961 M -48.54997253417969 -36.86399841308593 L -48.7599983215332 -37.64699935913085 L -49.152000427246094 -38.03900146484374 L -49.38199996948242 -38.26900100708007 L -50.231998443603516 -38.49700164794921 L -51.082000732421875 -38.26900100708007 L -51.70399856567383 -37.64699935913085 L -51.91402816772461 -36.86399841308593 L -51.93199920654297 -36.79700088500976 L -51.70399856567383 -35.9469985961914 L -51.082000732421875 -35.32400131225585 L -50.231998443603516 -35.097000122070305 L -49.38199996948242 -35.32400131225585 L -49.152000427246094 -35.554370880126946 L -48.7599983215332 -35.9469985961914 L -48.53200149536133 -36.79700088500976 L -48.54997253417969 -36.86399841308593 M -27.285999298095703 39.39899826049804 L -27.513999938964844 40.2490005493164 L -27.323284149169922 40.95999908447265 L -27.285999298095703 41.09899902343749 L -26.663999557495117 41.72100067138671 L -25.81399917602539 41.94900131225585 L -24.964000701904297 41.72100067138671 L -24.576000213623047 41.33362197875976 L -24.340999603271484 41.09899902343749 L -24.303878784179688 40.95999908447265 L -24.11400032043457 40.2490005493164 L -24.340999603271484 39.39899826049804 L -24.576000213623047 39.164375305175774 L -24.82878303527832 38.91199874877929 L -24.964000701904297 38.77700042724609 L -25.81399917602539 38.548999786376946 L -26.663999557495117 38.77700042724609 L -26.798999786376953 38.91199874877929 L -27.285999298095703 39.39899826049804 z"
     fill="none"
     stroke="rgb(255,0,0)"
     stroke-width="0.001mm"
     id="path6"
     style="stroke-width:0.02645833;stroke-miterlimit:4;stroke-dasharray:none" />
</svg>
