<?xml version="1.0" encoding="UTF-8" standalone="no"?>
<svg
   xmlns:dc="http://purl.org/dc/elements/1.1/"
   xmlns:cc="http://creativecommons.org/ns#"
   xmlns:rdf="http://www.w3.org/1999/02/22-rdf-syntax-ns#"
   xmlns:svg="http://www.w3.org/2000/svg"
   xmlns="http://www.w3.org/2000/svg"
   xmlns:sodipodi="http://sodipodi.sourceforge.net/DTD/sodipodi-0.dtd"
   xmlns:inkscape="http://www.inkscape.org/namespaces/inkscape"
   width="128.9376678466797mm"
   height="128.9747505187988mm"
   viewBox="-64.47791290283203 -64.48733520507811 128.9376678466797 128.9747505187988"
   version="1.1"
   id="svg8"
   sodipodi:docname="base_tower_top_lower_both_sinks.svg"
   inkscape:version="0.92.4 (5da689c313, 2019-01-14)">
  <metadata
     id="metadata14">
    <rdf:RDF>
      <cc:Work
         rdf:about="">
        <dc:format>image/svg+xml</dc:format>
        <dc:type
           rdf:resource="http://purl.org/dc/dcmitype/StillImage" />
      </cc:Work>
    </rdf:RDF>
  </metadata>
  <defs
     id="defs12" />
  <sodipodi:namedview
     pagecolor="#ffffff"
     bordercolor="#666666"
     borderopacity="1"
     objecttolerance="10"
     gridtolerance="10"
     guidetolerance="10"
     inkscape:pageopacity="0"
     inkscape:pageshadow="2"
     inkscape:window-width="5120"
     inkscape:window-height="2019"
     id="namedview10"
     showgrid="false"
     inkscape:lockguides="true"
     inkscape:zoom="3.8731095"
     inkscape:cx="-30.768225"
     inkscape:cy="258.89546"
     inkscape:window-x="-13"
     inkscape:window-y="-13"
     inkscape:window-maximized="1"
     inkscape:current-layer="layer10" />
  <title
     id="title2">svgOutput</title>
  <desc
     id="desc4">made with tinkercad</desc>
  <g
     inkscape:groupmode="layer"
     id="layer10"
     inkscape:label="Layer 2">
    <circle
       style="opacity:1;fill:#000000;fill-opacity:1;stroke:none;stroke-width:0.10583333;stroke-linecap:round;stroke-miterlimit:4;stroke-dasharray:none;stroke-opacity:1"
       id="path821-3"
       cx="-18.266386"
       cy="-20.531431"
       r="2.972224" />
    <circle
       style="opacity:1;fill:#000000;fill-opacity:1;stroke:none;stroke-width:0.10583333;stroke-linecap:round;stroke-miterlimit:4;stroke-dasharray:none;stroke-opacity:1"
       id="path821-1"
       cx="26.914553"
       cy="-5.5336204"
       r="2.972224" />
    <circle
       style="opacity:1;fill:#000000;fill-opacity:1;stroke:none;stroke-width:0.10583333;stroke-linecap:round;stroke-miterlimit:4;stroke-dasharray:none;stroke-opacity:1"
       id="path821-1-4"
       cx="-8.6119213"
       cy="26.128536"
       r="2.972224" />
    <circle
       style="opacity:1;fill:#000000;fill-opacity:1;stroke:none;stroke-width:0.10583333;stroke-linecap:round;stroke-miterlimit:4;stroke-dasharray:none;stroke-opacity:1"
       id="path821-1-3"
       cx="-23.19972"
       cy="33.567345"
       r="2.972224" />
    <circle
       style="opacity:1;fill:#000000;fill-opacity:1;stroke:none;stroke-width:0.10583333;stroke-linecap:round;stroke-miterlimit:4;stroke-dasharray:none;stroke-opacity:1"
       id="path821-1-2"
       cx="-39.912884"
       cy="36.658798"
       r="2.972224" />
    <circle
       style="opacity:1;fill:#000000;fill-opacity:1;stroke:none;stroke-width:0.10583333;stroke-linecap:round;stroke-miterlimit:4;stroke-dasharray:none;stroke-opacity:1"
       id="path821-3-0-2-9-9"
       cx="-18.105579"
       cy="26.133629"
       r="2.972224" />
    <circle
       style="opacity:1;fill:#000000;fill-opacity:1;stroke:none;stroke-width:0.11776423;stroke-linecap:round;stroke-miterlimit:4;stroke-dasharray:none;stroke-opacity:1"
       id="path821-3-0-2-9-7"
       cx="-26.431168"
       cy="50.757847"
       r="3.3072917" />
    <circle
       style="opacity:1;fill:#000000;fill-opacity:1;stroke:none;stroke-width:0.10583333;stroke-linecap:round;stroke-miterlimit:4;stroke-dasharray:none;stroke-opacity:1"
       id="path821-3-0-2-9-8"
       cx="-47.571335"
       cy="31.640345"
       r="2.972224" />
    <circle
       style="opacity:1;fill:#000000;fill-opacity:1;stroke:none;stroke-width:0.11776423;stroke-linecap:round;stroke-miterlimit:4;stroke-dasharray:none;stroke-opacity:1"
       id="path821-3-0-2-9-7-7"
       cx="50.595165"
       cy="26.266348"
       r="3.3072917" />
    <circle
       style="opacity:1;fill:#000000;fill-opacity:1;stroke:none;stroke-width:0.11776423;stroke-linecap:round;stroke-miterlimit:4;stroke-dasharray:none;stroke-opacity:1"
       id="path821-3-0-2-9-7-6"
       cx="26.241615"
       cy="-50.653976"
       r="3.3072917" />
    <circle
       style="opacity:1;fill:#000000;fill-opacity:1;stroke:none;stroke-width:0.11776423;stroke-linecap:round;stroke-miterlimit:4;stroke-dasharray:none;stroke-opacity:1"
       id="path821-3-0-2-9-7-0"
       cx="-50.678707"
       cy="-26.266272"
       r="3.3072917" />
  </g>
  <ellipse
     style="opacity:0;fill:#ff0000;fill-opacity:1;stroke:none;stroke-width:0.02645833;stroke-linecap:round;stroke-miterlimit:4;stroke-dasharray:none;stroke-opacity:1"
     id="path821"
     cx="-18.375248"
     cy="-20.68169"
     rx="2.0066915"
     ry="1.8102919" />
  <circle
     style="opacity:1;fill:none;fill-opacity:1;stroke:#ff0000;stroke-width:0.2698833;stroke-linecap:round;stroke-miterlimit:4;stroke-dasharray:none;stroke-opacity:1"
     id="path823"
     cx="-18.271589"
     cy="-20.547716"
     r="1.7171417" />
  <circle
     style="opacity:1;fill:none;fill-opacity:1;stroke:#ff0000;stroke-width:0.2698833;stroke-linecap:round;stroke-miterlimit:4;stroke-dasharray:none;stroke-opacity:1"
     id="path823-1"
     cx="26.946156"
     cy="-5.5376396"
     r="1.7171417" />
  <circle
     style="opacity:1;fill:none;fill-opacity:1;stroke:#ff0000;stroke-width:0.2698833;stroke-linecap:round;stroke-miterlimit:4;stroke-dasharray:none;stroke-opacity:1"
     id="path823-16"
     cx="-8.6511431"
     cy="26.101002"
     r="1.7171417" />
  <circle
     style="opacity:1;fill:none;fill-opacity:1;stroke:#ff0000;stroke-width:0.2698833;stroke-linecap:round;stroke-miterlimit:4;stroke-dasharray:none;stroke-opacity:1"
     id="path823-8"
     cx="-23.212589"
     cy="33.520256"
     r="1.7171417" />
  <circle
     style="opacity:1;fill:none;fill-opacity:1;stroke:#ff0000;stroke-width:0.2698833;stroke-linecap:round;stroke-miterlimit:4;stroke-dasharray:none;stroke-opacity:1"
     id="path823-9"
     cx="-39.949245"
     cy="36.645573"
     r="1.7171417" />
  <g
     inkscape:groupmode="layer"
     id="layer9"
     inkscape:label="Layer 1"
     style="display:none">
    <path
       transform="translate(1.2642282e-6)"
       d="M 63.459755,-1.5698495 V 0 1.9029037 l -0.131271,2.4770792 -0.324879,3.4570051 -0.362976,2.454576 -0.647423,3.41151 -0.591351,2.409152 -0.07855,0.271775 -0.885582,3.063911 -0.813884,2.343724 -1.096356,2.784364 -0.175743,0.446335 -1.007736,2.20789 -0.02244,0.04915 -0.705357,1.392624 -0.863621,1.705091 -1.236457,2.150774 -0.151425,0.240136 -1.700439,2.696598 -1.432736,2.025337 -2.118999,2.750675 -1.616104,1.882397 -2.367466,2.540111 -1.785298,1.72237 -2.59494,2.307393 -1.938656,1.548175 -2.799083,2.054257 -2.074933,1.359394 -1.168048,0.699047 -1.811263,1.083988 -2.193281,1.159359 -3.133293,1.496075 -2.292467,0.948906 -3.259861,1.195694 -2.370811,0.729702 -3.357268,0.885978 -2.428737,0.50467 L 8.4955111,62.92506 6.0301003,63.200104 2.5666797,63.444492 0.08626621,63.487415 0,63.485386 -3.384737,63.405758 -5.8584828,63.21656 -9.3067389,62.810608 -11.75173,62.390121 l -3.395179,-0.727329 -1.237092,-0.334572 -1.157474,-0.313038 -3.311772,-1.041706 -2.323721,-0.868896 -1.399032,-0.589241 -1.801337,-0.758682 -0.851055,-0.412655 -1.380983,-0.669609 -3.059219,-1.641304 -1.099408,-0.667336 -1.021362,-0.619961 -2.89299,-1.920688 -1.991165,-1.479832 -1.475731,-1.193272 -1.224197,-0.989883 -1.84364,-1.659859 -2.483539,-2.42638 -1.680279,-1.825302 -1.094429,-1.290577 -0.676666,-0.797935 -0.474472,-0.559506 -1.501915,-1.974499 -1.987763,-2.846908 -1.252495,-2.013149 -0.05814,-0.09345 -1.712463,-3.020723 -1.107685,-2.219954 -1.422581,-3.167705 -0.894733,-2.313721 -1.118698,-3.286692 -0.64391,-2.281753 -0.02995,-0.106144 -0.806656,-3.377681 -0.447574,-2.43999 -0.487026,-3.4377575 -0.217118,-2.471662 L -63.477913,1.0820963 -63.471371,0 l 0.0085,-1.3987337 0.162731,-3.4686703 0.24754,-2.468328 0.487026,-3.437757 0.477581,-2.434573 0.758473,-3.175939 0.04818,-0.201742 0.70345,-2.379147 1.118701,-3.286691 0.923069,-2.302883 0.0097,-0.02154 1.182487,-2.633084 0.230423,-0.513088 0.488373,-0.949829 0.645985,-1.256372 1.609798,-2.839629 0.102665,-0.181095 1.336472,-2.090347 1.987762,-2.846912 1.525673,-1.956158 2.245563,-2.648018 1.702786,-1.80447 2.483536,-2.426376 1.864063,-1.63694 2.699928,-2.183155 2.009083,-1.455243 2.89299,-1.920688 0.7509,-0.443276 1.385289,-0.817768 3.059219,-1.641304 2.245375,-1.055176 3.200369,-1.347923 2.334138,-0.840141 3.311772,-1.04171 2.402484,-0.618019 3.39518,-0.727329 2.4499908,-0.39048 3.448256,-0.405953 2.4754128,-0.159195 3.0605164,-0.072 0.41048691,-0.0097 2.47999669,0.07335 3.4634206,0.243805 2.4616609,0.305469 3.4255089,0.567517 2.422487,0.534256 1.72044,0.45372 1.636827,0.431671 2.362059,0.759296 3.259863,1.196274 0.93325,0.399769 1.34713,0.577061 1.259024,0.60115 1.874269,0.894921 2.178696,1.186031 1.532883,0.917385 1.44643,0.86565 2.058258,1.384815 2.799084,2.054257 1.919487,1.57151 2.59494,2.307392 1.764045,1.744458 2.367466,2.540115 1.592766,1.901985 2.119,2.750671 1.407734,2.042839 1.851863,2.936734 1.210202,2.165779 1.568981,3.097713 1.002251,2.269547 1.272098,3.230697 0.785545,2.35331 0.964135,3.335686 0.561344,2.416653 0.647423,3.41151 0.332557,2.4583263 0.324875,3.457005 0.101269,2.4791632 M -19.049999,-12.633 l -2.177,-2.788 -1.027891,-0.963001 -1.55411,-1.455999 -0.767,-0.522263 -2.157,-1.468736 -3.196001,-1.517001 -2.839001,-0.841154 -0.552997,-0.163847 -3.506001,-0.469 -3.536998,0.076 -3.483002,0.621999 -3.345001,1.152001 -1.959999,1.036726 -1.167,0.617273 -2.834,2.117001 -0.799549,0.816999 -1.67445,1.711001 -2.055,2.88 -1.584999,3.1629999 -1.079003,3.3699999 L -60.890999,-1.765 V 0 1.773 l 0.544998,3.4950001 1.079003,3.3699994 1.584999,3.1620005 2.055,2.881 1.666622,1.703001 0.807377,0.824999 2.834,2.117 1.167,0.617275 1.959999,1.036725 3.345001,1.152 3.483002,0.621 3.536998,0.077 3.506001,-0.469 0.552997,-0.163845 2.839001,-0.841154 3.196001,-1.517 2.924,-1.991001 1.562649,-1.463999 1.019352,-0.955001 2.177,-2.788 0.337595,0.432149 1.840404,2.355851 1.019351,0.955001 1.562649,1.463999 2.924,1.991001 3.1959999,1.517 L -4.7779999,22.361 -1.272,22.83 0,22.802309 2.2650001,22.753 5.7470002,22.132 9.092,20.98 12.22,19.326 15.054,17.209 17.528,14.681 19.583,11.8 21.167999,8.6379995 22.246,5.2680001 22.792,1.773 V 0 -1.765 L 22.246,-5.2600002 21.308107,-8.1920004 21.167999,-8.6300001 19.583,-11.793 17.528,-14.673 16.384001,-15.84197 15.853548,-16.384001 15.054,-17.201 12.22,-19.318001 9.092,-20.972 5.7470002,-22.124001 2.2650001,-22.746 0,-22.794668 l -1.272,-0.02733 -3.5059999,0.469 -3.3920002,1.005001 -3.1959999,1.517001 -2.924,1.990999 -1.55411,1.455999 -1.02789,0.963001 -1.840404,2.355852 -0.337595,0.432148 m 46.837,-38.949001 -0.623001,-0.621998 -0.850001,-0.228 -0.849998,0.228 -0.622002,0.621998 -0.102465,0.382 -0.125534,0.468003 0.227999,0.849998 0.622002,0.622002 0.402631,0.107998 0.447367,0.119999 0.447369,-0.119999 0.402632,-0.107998 0.623001,-0.622002 0.226999,-0.849998 -0.124983,-0.468003 -0.102016,-0.382 m -0.855739,47.4859977 0.0037,0.001 M 51.200001,24.744717 50.733002,24.620001 49.882999,24.847 49.261002,25.469999 49.152,25.87636 49.033001,26.32 49.152,26.763639 49.261002,27.17 49.882999,27.792 50.733002,28.02 51.583,27.792 52.205002,27.17 52.351456,26.624001 52.432999,26.32 52.205002,25.469999 51.583,24.847 51.200001,24.744717 M -52.204005,-27.162 l -0.144313,0.538 -0.08369,0.312001 0.228,0.85 0.621998,0.622999 0.850003,0.227001 0.849998,-0.227001 0.623001,-0.622999 0.106999,-0.400661 0.119999,-0.449339 -0.119999,-0.449339 -0.106999,-0.400662 -0.623001,-0.621999 -0.849998,-0.227999 -0.850003,0.227999 -0.621998,0.621999 M -16.6698,26.624001 -16.541,26.142 l -0.194001,-0.725 -0.531,-0.530001 -0.724998,-0.195 -0.441,0.118615 -0.284001,0.07638 -0.531,0.530001 -0.194,0.725 0.128799,0.482001 0.0652,0.243999 0.531,0.530001 0.284001,0.07638 0.441,0.118614 0.724998,-0.194999 0.531,-0.530001 0.0652,-0.243999 m -11.343199,24.116021 0.123388,0.459999 0.104612,0.389999 0.622,0.622002 0.538999,0.144577 0.311001,0.08342 0.850001,-0.227997 0.622,-0.622012 0.104611,-0.389999 0.123388,-0.459999 L -24.841,49.889999 -25.462999,49.268002 -25.895456,49.152 -26.313,49.040001 -26.730543,49.152 -27.163,49.268002 l -0.622,0.621997 -0.228,0.850003 m -20.73,-18.396 0.424,0.424 0.106998,0.106998 0.725002,0.194 0.724999,-0.194 0.107002,-0.106998 0.424,-0.424 0.194,-0.725003 -0.194,-0.725 -0.174,-0.174 -0.357002,-0.356998 -0.724999,-0.194 -0.725002,0.194 -0.356998,0.356998 -0.174,0.174 -0.194,0.725 0.194,0.725003"
       id="path6"
       style="fill:none;stroke:#ff0000;stroke-width:0.29474583;stroke-miterlimit:4;stroke-dasharray:none"
       inkscape:connector-curvature="0"
       sodipodi:nodetypes="ccccccccccccccccccccccccccccccccccccccccccccccccccccccccccccccccccccccccccccccccccccccccccccccccccccccccccccccccccccccccccccccccccccccccccccccccccccccccccccccccccccccccccccccccccccccccccccccccccccccccccccccccccccccccccccccccccccccccccccccccccccccccccccccccccccccccccccccccccccccccccccccccccccccccccccccccccccccccccccccccccccccccccccccccccccccccccccccccccc" />
  </g>
</svg>
