<?xml version="1.0" encoding="UTF-8" standalone="no"?>
<svg
   xmlns:dc="http://purl.org/dc/elements/1.1/"
   xmlns:cc="http://creativecommons.org/ns#"
   xmlns:rdf="http://www.w3.org/1999/02/22-rdf-syntax-ns#"
   xmlns:svg="http://www.w3.org/2000/svg"
   xmlns="http://www.w3.org/2000/svg"
   xmlns:sodipodi="http://sodipodi.sourceforge.net/DTD/sodipodi-0.dtd"
   xmlns:inkscape="http://www.inkscape.org/namespaces/inkscape"
   width="99.0199966430664mm"
   height="83.27200317382811mm"
   viewBox="-49.5099983215332 -41.636001586914055 99.0199966430664 83.27200317382811"
   version="1.1"
   id="svg8"
   sodipodi:docname="base_tower_motor_holder_lower_modified_6mm.svg"
   inkscape:version="0.92.4 (5da689c313, 2019-01-14)">
  <metadata
     id="metadata14">
    <rdf:RDF>
      <cc:Work
         rdf:about="">
        <dc:format>image/svg+xml</dc:format>
        <dc:type
           rdf:resource="http://purl.org/dc/dcmitype/StillImage" />
      </cc:Work>
    </rdf:RDF>
  </metadata>
  <defs
     id="defs12" />
  <sodipodi:namedview
     pagecolor="#ffffff"
     bordercolor="#666666"
     borderopacity="1"
     objecttolerance="10"
     gridtolerance="10"
     guidetolerance="10"
     inkscape:pageopacity="0"
     inkscape:pageshadow="2"
     inkscape:window-width="2560"
     inkscape:window-height="1299"
     id="namedview10"
     showgrid="false"
     inkscape:zoom="33.934422"
     inkscape:cx="181.21708"
     inkscape:cy="265.9953"
     inkscape:window-x="-13"
     inkscape:window-y="-13"
     inkscape:window-maximized="1"
     inkscape:current-layer="layer5" />
  <title
     id="title2">svgOutput</title>
  <desc
     id="desc4">made with tinkercad</desc>
  <g
     inkscape:groupmode="layer"
     id="layer6"
     inkscape:label="Layer 2"
     style="display:inline" />
  <path
     d="m 34.238998,-34.563999 2.309899,1.795997 0.315101,0.245003 2.41,2.290999 2.171002,2.519001 1.910999,2.720998 1.632,2.897002 1.338001,3.043998 0.867913,2.667 0.06392,0.196411 0.09717,0.29859 0.241149,1.101627 0.315487,1.441208 0.154366,0.705165 0.09634,0.822279 0.223621,1.9085714 0.06704,0.5721493 0.01965,1.1459999 L 48.509998,-6.013 48.237999,-2.6989999 47.743748,0 47.639,0.57200003 46.719002,3.767 45.487999,6.8559999 43.956001,9.8079996 42.139999,12.593 l -2.082,2.592 -2.329998,2.373001 -2.552002,2.130998 -2.407997,1.633625 L 32.424,21.556 29.502001,23.142 26.437,24.431 l -3.177999,0.979 -6.875,2.087221 -0.465364,0.141281 -2.971866,0.902247 -2.596425,0.788263 -0.3679575,0.11171 -2.236722,0.679027 -2.8922338,0.878029 -1.331877,0.404333 L 0,32.471249 -0.97745162,32.768002 -19.422722,38.367943 -26.893,40.636002 -29.906,37.813 l -2.824,-3.014 -0.038,-0.04623 -2.583999,-3.14377 -2.378311,-3.311273 -0.03069,-0.04273 -1.634636,-2.619459 -0.551361,-0.883539 -1.954002,-3.639 -1.712997,-3.757 L -45.078999,13.495 -32.768002,11.184343 -31.951,11.031 l 0.233562,1.257 0.207272,1.1155 0.0881,0.474508 0.240231,1.293825 0.225008,1.212168 0.760315,4.095999 2.67933,3.375321 c 8.141122,-1.512015 10.981504,-1.927507 17.9822317,-3.227059 L -6.5476069,16.384001 -7.5858335,10.790833 -8.0682497,8.1920004 -8.1920004,7.5253401 -8.696167,4.8093333 -9.5889177,0 -11.109591,-8.1920004 -12.630263,-16.384001 -13.047,-18.629 l -3.337001,0.61957 -8.754535,1.625429 -7.629466,1.416541 -3.875,0.71946 2.502003,13.47999999 L -38.233227,0 -47.882999,1.811 -48.076931,0 l -0.267071,-2.494 -0.165996,-4.3249998 0.128997,-4.3280002 0.09217,-0.938754 0.330826,-3.369246 0.715,-4.27 1.005001,-4.211001 13.469997,-2.527744 16.384001,-3.074581 7.8530009,-1.473673 1.9720254,-1.756003 L -6.0479999,-33.223 -3.358,-35.178001 -0.48800001,-36.855999 0,-37.079903 2.5350001,-38.243 l 3.1449997,-1.080002 3.2360006,-0.762997 3.2959996,-0.439003 3.323,-0.111 3.318001,0.219002 3.278999,0.547001 3.209999,0.868 3.108002,1.181999 2.974998,1.484001 1.343003,0.845696 1.470996,0.926304 M 30.889,-20.545 29.039,-22.468 26.958,-24.139 26.242653,-24.576 24.681,-25.530001 22.243999,-26.618 19.688999,-27.386 17.056,-27.82 16.384001,-27.84394 14.389,-27.915 11.732,-27.666999 9.1289997,-27.082 6.6209998,-26.169 4.2509999,-24.941998 3.7226009,-24.576 2.0580001,-23.423 0.077,-21.635 0,-21.545189 -0.50350237,-20.957914 -1.66,-19.608999 l -1.4629999,2.231998 -0.4824326,0.993 L -4.289,-14.977 l -0.849,2.53 -0.5190001,2.6179995 -0.1106496,1.6370001 -0.06935,1.0260005 L -5.675,-4.5029998 -5.1729999,-1.882 -4.5555615,0 -4.3410001,0.65399998 -4.0960002,1.1670086 -3.191,3.062 -2.5231891,4.0960002 -1.743,5.3039999 -0.02,7.3410001 0,7.3592844 0.91085505,8.1920004 1.95,9.1420002 4.1329999,10.676 l 2.362,1.242 2.5010004,0.93 2.5999997,0.603 2.655,0.265 2.133001,-0.06158 L 16.917999,13.639 19.554001,13.222 22.115,12.471 24.558001,11.399 26.844999,10.023 28.936001,8.3660002 29.105629,8.1920004 30.799,6.4549999 32.402,4.322 32.768002,3.6774735 33.720001,2.0009999 34.537411,0 34.729,-0.46900001 l 0.686001,-2.57900009 0.349998,-2.6459997 0.0075,-2.4980006 5.11e-4,-0.1709995 -0.331997,-2.6480001 -0.668003,-2.583 -0.993,-2.476999 -0.174904,-0.313002 -0.837093,-1.498028 -0.290001,-0.51897 L 30.889,-20.545 m -38.3849998,22.8589999 0.1659999,0.674 0.46,0.5190001 0.6489997,0.2469999 0.6890001,-0.084 L -4.961,3.276 -4.638,2.661 V 1.967 L -4.961,1.352 -5.5320001,0.958 -6.2210002,0.875 -6.8699999,1.1210001 -7.3299999,1.64 -7.4959998,2.3139999 M -3.8269999,20.233999 -3.178,20.48 -2.4890001,20.396 -1.918,20.002001 -1.595,19.388 V 18.693001 L -1.918,18.079 -2.4890001,17.684999 -3.178,17.601 l -0.6489999,0.246 -0.2690003,0.304087 -0.191,0.215914 -0.1659999,0.673 0.1659999,0.674 0.191,0.215912 0.2690003,0.304086 M -32.673,23.077 l -0.095,0.03615 -0.553997,0.210844 -0.460002,0.519001 -0.166001,0.674 0.166001,0.674 0.460002,0.518999 0.553997,0.210846 0.095,0.03616 0.689001,-0.084 0.570999,-0.394 0.323,-0.615 V 24.576 24.17 l -0.323,-0.615 -0.570999,-0.394001 -0.689001,-0.084"
     id="path6"
     style="fill:none;stroke:#ff0000;stroke-width:0.02645833;stroke-miterlimit:4;stroke-dasharray:none"
     inkscape:connector-curvature="0"
     sodipodi:nodetypes="ccccccccccccccccccccccccccccccccccccccccccccccccccccccccccccccccccccccccccccccccccccccccccccccccccccccccccccccccccccccccccccccccccccccccccccccccccccccccccccccccccccccccccccccccccccccccccccccccccccccccccccccccccccccccccccccccccc" />
  <circle
     style="opacity:1;fill:none;fill-opacity:1;stroke:#ff0000;stroke-width:0.02645833;stroke-linecap:round;stroke-miterlimit:4;stroke-dasharray:none;stroke-opacity:1"
     id="path821"
     cx="-3.280122"
     cy="-27.650766"
     r="1.6759847" />
  <circle
     style="opacity:1;fill:none;fill-opacity:1;stroke:#ff0000;stroke-width:0.02645833;stroke-linecap:round;stroke-miterlimit:4;stroke-dasharray:none;stroke-opacity:1"
     id="path821-2"
     cx="41.910576"
     cy="-12.658402"
     r="1.6759846" />
  <circle
     style="opacity:1;fill:none;fill-opacity:1;stroke:#ff0000;stroke-width:0.02645833;stroke-linecap:round;stroke-miterlimit:4;stroke-dasharray:none;stroke-opacity:1"
     id="path821-0"
     cx="6.328115"
     cy="19.009657"
     r="1.6759846" />
  <circle
     style="opacity:1;fill:none;fill-opacity:1;stroke:#ff0000;stroke-width:0.02645833;stroke-linecap:round;stroke-miterlimit:4;stroke-dasharray:none;stroke-opacity:1"
     id="path821-7"
     cx="-24.965046"
     cy="29.516005"
     r="1.6759846" />
  <g
     inkscape:groupmode="layer"
     id="layer5"
     inkscape:label="Layer 1"
     style="display:inline">
    <circle
       style="opacity:1;fill:none;fill-opacity:1;stroke:#ff0000;stroke-width:0.02645833;stroke-linecap:round;stroke-miterlimit:4;stroke-dasharray:none;stroke-opacity:1"
       id="path821-0-0"
       cx="-8.2799873"
       cy="26.416458"
       r="1.6759845" />
  </g>
</svg>
