<?xml version="1.0" encoding="UTF-8"?>
<svg id="Camada_1" xmlns="http://www.w3.org/2000/svg" viewBox="0 0 200 300">
  <defs>
    <style>
      .cls-1 {
        fill: none;
        stroke: #000;
        stroke-miterlimit: 10;
      }

      .cls-2 {
        fill: #999;
      }
    </style>
  </defs>
  <path class="cls-2" d="M165.41,211.93l-20.63,3.43c-26.78,4.46-54.1,4.72-80.97.78l-20.87-3.06c4.53-14.29,11.74-31.66,22.73-52.75,25.57,3.56,51.52,3.32,77.01-.71,10.9,20.84,18.12,38.08,22.73,52.31Z"/>
  <path class="cls-1" d="M61,43.13l-.42.61c-5.88,4.6-10.27,9.64-13.49,14.89h-5.58s-3.69,6.65-13.58,1.33c-9.89-5.31-22.44-19.34-19.79-34.4,0,0,5.17-9.16,29.09-5.76,18.75,2.66,16.54,17.57,16.54,17.57l7.23,5.76Z"/>
  <path class="cls-1" d="M163.38,62.47l3.58-1.05s5.41,5.33,13.41-2.55c7.99-7.89,16.09-24.88,9.3-38.58,0,0-7.53-7.33-29.53,2.66-17.25,7.82-10.93,21.51-10.93,21.51l-.2.28"/>
  <path class="cls-1" d="M47.09,58.63c-13.75,22.44-6,48.74-.76,61.39,1.82,4.38,5.99,7.29,10.73,7.57,2.39.14,5.14.44,7.87,1.05,7.99,1.78,11.93,10.82,7.95,17.98-46.66,83.84-38.46,115.1-31.4,125.52,1.92,2.83,4.96,4.7,8.35,5.2,10.25,1.51,38.94,5.5,52.36,4.89,1.32-.06,2.65-.06,3.97,0,13.42.61,42.11-3.38,52.37-4.89,3.39-.5,6.42-2.37,8.34-5.2,7.06-10.42,15.26-41.68-31.39-125.52-3.98-7.16-.04-16.2,7.95-17.98,2.73-.61,5.48-.91,7.87-1.05,4.73-.28,8.91-3.19,10.72-7.57,4.95-11.94,12.12-36.02,1.36-57.55-3.12-6.25-7.74-12.28-14.37-17.73-7.01-5.78-16.27-10.92-28.36-14.99-10.7-3.6-22.25-3.6-32.94,0-11.39,3.83-20.27,8.62-27.13,13.99"/>
</svg>